solid OpenSCAD_Model
  facet normal 0 0 -1
    outer loop
      vertex 266.551 -124.213 0
      vertex 269 -121.5 0
      vertex 269 -124.7 0
    endloop
  endfacet
  facet normal -0 -0 -1
    outer loop
      vertex 283 -16 0
      vertex 283 -89 0
      vertex 256.959 -16 0
    endloop
  endfacet
  facet normal 0 0 -1
    outer loop
      vertex 200.112 -95.0052 0
      vertex 196.848 -93.1208 0
      vertex 245.275 -14.4564 0
    endloop
  endfacet
  facet normal 0 0 -1
    outer loop
      vertex 269 -121.5 0
      vertex 271.449 -124.213 0
      vertex 269 -124.7 0
    endloop
  endfacet
  facet normal 0 -0 -1
    outer loop
      vertex 271.956 -119.525 0
      vertex 273.525 -122.825 0
      vertex 271.263 -120.563 0
    endloop
  endfacet
  facet normal -0 0 -1
    outer loop
      vertex 275.4 -118.3 0
      vertex 274.913 -120.749 0
      vertex 272.2 -118.3 0
    endloop
  endfacet
  facet normal 0 0 -1
    outer loop
      vertex 274.913 -115.851 0
      vertex 271.956 -117.075 0
      vertex 271.263 -116.037 0
    endloop
  endfacet
  facet normal 0 0 -1
    outer loop
      vertex 271.263 -116.037 0
      vertex 270.225 -115.344 0
      vertex 271.652 -112.523 0
    endloop
  endfacet
  facet normal 0 0 -1
    outer loop
      vertex 271.652 -112.523 0
      vertex 269 -115.1 0
      vertex 267.775 -115.344 0
    endloop
  endfacet
  facet normal 0 0 -1
    outer loop
      vertex 283 -89 0
      vertex 267.775 -115.344 0
      vertex 266.737 -116.037 0
    endloop
  endfacet
  facet normal 0 0 -1
    outer loop
      vertex 247.725 -14.4564 0
      vertex 252.372 -14.0097 0
      vertex 256.107 -15.5566 0
    endloop
  endfacet
  facet normal 0 0 -1
    outer loop
      vertex 248.763 -9.23724 0
      vertex 247.725 -8.54358 0
      vertex 248.949 -5.58716 0
    endloop
  endfacet
  facet normal 0 -0 -1
    outer loop
      vertex 252.413 -9.05081 0
      vertex 252.9 -11.5 0
      vertex 249.456 -10.2754 0
    endloop
  endfacet
  facet normal -0 -0 -1
    outer loop
      vertex 240.438 -9.80286 0
      vertex 243.544 -12.7246 0
      vertex 239.4 -9.47557 0
    endloop
  endfacet
  facet normal 0 0 -1
    outer loop
      vertex 240.438 -9.80286 0
      vertex 243.3 -11.5 0
      vertex 243.544 -12.7246 0
    endloop
  endfacet
  facet normal 0 0 -1
    outer loop
      vertex 180 -4.59999 0
      vertex 178.775 -8.04358 0
      vertex 177.551 -5.08716 0
    endloop
  endfacet
  facet normal -0 0 -1
    outer loop
      vertex 251.025 -6.9745 0
      vertex 248.763 -9.23724 0
      vertex 248.949 -5.58716 0
    endloop
  endfacet
  facet normal -0 0 -1
    outer loop
      vertex 248.949 -5.58716 0
      vertex 246.5 -8.29999 0
      vertex 246.5 -5.09999 0
    endloop
  endfacet
  facet normal 0 0 -1
    outer loop
      vertex 193.438 -91.5162 0
      vertex 189.906 -90.2025 0
      vertex 204.11 -6.38815 0
    endloop
  endfacet
  facet normal 0 -0 -1
    outer loop
      vertex 186.126 -9.62502 0
      vertex 186.6 -9.47557 0
      vertex 182.956 -12.2246 0
    endloop
  endfacet
  facet normal 0 0 -1
    outer loop
      vertex 204.11 -6.38815 0
      vertex 189.906 -90.2025 0
      vertex 181.225 -13.9564 0
    endloop
  endfacet
  facet normal 0 0 -1
    outer loop
      vertex 155 -64.4 0
      vertex 163.899 -89.6577 0
      vertex 155 -89 0
    endloop
  endfacet
  facet normal 0 0 -1
    outer loop
      vertex 155 -64.4 0
      vertex 167.568 -88.7971 0
      vertex 163.899 -89.6577 0
    endloop
  endfacet
  facet normal 0 0 -1
    outer loop
      vertex 175.058 -88.0099 0
      vertex 157.263 -60.2627 0
      vertex 157.956 -59.2246 0
    endloop
  endfacet
  facet normal 0 0 -1
    outer loop
      vertex 155 -64.4 0
      vertex 171.296 -88.2465 0
      vertex 167.568 -88.7971 0
    endloop
  endfacet
  facet normal 0 0 -1
    outer loop
      vertex 182.574 -88.4828 0
      vertex 158.2 -58 0
      vertex 186.276 -89.1889 0
    endloop
  endfacet
  facet normal 0 0 -1
    outer loop
      vertex 158.2 -58 0
      vertex 157.956 -56.7754 0
      vertex 181.225 -13.9564 0
    endloop
  endfacet
  facet normal 0 0 -1
    outer loop
      vertex 173.6 -11 0
      vertex 176.8 -11 0
      vertex 174.087 -13.4492 0
    endloop
  endfacet
  facet normal 0 0 -1
    outer loop
      vertex 178.775 -13.9564 0
      vertex 174.281 -13.7391 0
      vertex 177.737 -13.2627 0
    endloop
  endfacet
  facet normal 0 0 -1
    outer loop
      vertex 182.449 -5.08716 0
      vertex 181.225 -8.04358 0
      vertex 180 -7.79999 0
    endloop
  endfacet
  facet normal 0 -0 -1
    outer loop
      vertex 180 -4.59999 0
      vertex 180 -7.79999 0
      vertex 178.775 -8.04358 0
    endloop
  endfacet
  facet normal 0 -0 -1
    outer loop
      vertex 177.551 -5.08716 0
      vertex 177.737 -8.73724 0
      vertex 175.475 -6.4745 0
    endloop
  endfacet
  facet normal -0 0 -1
    outer loop
      vertex 177.737 -8.73724 0
      vertex 177.044 -9.77541 0
      vertex 174.087 -8.55081 0
    endloop
  endfacet
  facet normal 0 0 -1
    outer loop
      vertex 155 -51.6 0
      vertex 180 -14.2 0
      vertex 157.263 -55.7372 0
    endloop
  endfacet
  facet normal 0 0 -1
    outer loop
      vertex 155 -51.6 0
      vertex 162 -19.6654 0
      vertex 169.893 -15.5566 0
    endloop
  endfacet
  facet normal 0 0 -1
    outer loop
      vertex 155 -51.6 0
      vertex 155.165 -24.7857 0
      vertex 162 -19.6654 0
    endloop
  endfacet
  facet normal 0 0 -1
    outer loop
      vertex 180 -14.2 0
      vertex 155 -51.6 0
      vertex 169.893 -15.5566 0
    endloop
  endfacet
  facet normal 0 0 -1
    outer loop
      vertex 154.796 -24.255 0
      vertex 162 -19.6654 0
      vertex 155.165 -24.7857 0
    endloop
  endfacet
  facet normal 0 0 -1
    outer loop
      vertex 182.574 -88.4828 0
      vertex 178.826 -88.0888 0
      vertex 158.2 -58 0
    endloop
  endfacet
  facet normal 0 0 -1
    outer loop
      vertex 152.551 -63.9128 0
      vertex 153.775 -60.9564 0
      vertex 155 -64.4 0
    endloop
  endfacet
  facet normal 0 0 -1
    outer loop
      vertex 155 -51.6 0
      vertex 155 -24.8 0
      vertex 155.165 -24.7857 0
    endloop
  endfacet
  facet normal 0 0 -1
    outer loop
      vertex 155 -64.4 0
      vertex 153.775 -60.9564 0
      vertex 155 -61.2 0
    endloop
  endfacet
  facet normal -0 0 -1
    outer loop
      vertex 152.737 -55.7372 0
      vertex 152.044 -56.7754 0
      vertex 149.087 -55.5508 0
    endloop
  endfacet
  facet normal 0 0 -1
    outer loop
      vertex 152.044 -56.7754 0
      vertex 151.8 -58 0
      vertex 148.6 -58 0
    endloop
  endfacet
  facet normal -0 0 -1
    outer loop
      vertex 153.775 -60.9564 0
      vertex 152.551 -63.9128 0
      vertex 152.737 -60.2627 0
    endloop
  endfacet
  facet normal 0 0 -1
    outer loop
      vertex 221.89 -6.38815 0
      vertex 230.712 -7.54962 0
      vertex 244.237 -13.7627 0
    endloop
  endfacet
  facet normal -0 0 -1
    outer loop
      vertex 160.314 -90.8223 0
      vertex 159.601 -91.1223 0
      vertex 155 -89 0
    endloop
  endfacet
  facet normal 0 0 -1
    outer loop
      vertex 155 -89 0
      vertex 163.899 -89.6577 0
      vertex 160.314 -90.8223 0
    endloop
  endfacet
  facet normal 0 0 -1
    outer loop
      vertex 206.111 -99.5585 0
      vertex 203.207 -97.1562 0
      vertex 245.275 -14.4564 0
    endloop
  endfacet
  facet normal 0 0 -1
    outer loop
      vertex 155 -54.8 0
      vertex 155 -51.6 0
      vertex 156.225 -55.0436 0
    endloop
  endfacet
  facet normal 0 -0 -1
    outer loop
      vertex 183.2 -11 0
      vertex 186.126 -9.62502 0
      vertex 182.956 -12.2246 0
    endloop
  endfacet
  facet normal 0 0 -1
    outer loop
      vertex 155 -51.6 0
      vertex 157.263 -55.7372 0
      vertex 156.225 -55.0436 0
    endloop
  endfacet
  facet normal 0 0 -1
    outer loop
      vertex 204.11 -6.38815 0
      vertex 182.263 -13.2627 0
      vertex 195.288 -7.54962 0
    endloop
  endfacet
  facet normal 0 0 -1
    outer loop
      vertex 213 -6 0
      vertex 196.848 -93.1208 0
      vertex 193.438 -91.5162 0
    endloop
  endfacet
  facet normal 0 0 -1
    outer loop
      vertex 213 -6 0
      vertex 193.438 -91.5162 0
      vertex 204.11 -6.38815 0
    endloop
  endfacet
  facet normal 0 -0 -1
    outer loop
      vertex 213 -6 0
      vertex 221.89 -6.38815 0
      vertex 196.848 -93.1208 0
    endloop
  endfacet
  facet normal 0 0 -1
    outer loop
      vertex 245.275 -14.4564 0
      vertex 203.207 -97.1562 0
      vertex 200.112 -95.0052 0
    endloop
  endfacet
  facet normal 0 -0 -1
    outer loop
      vertex 221.89 -6.38815 0
      vertex 244.237 -13.7627 0
      vertex 196.848 -93.1208 0
    endloop
  endfacet
  facet normal 0 0 -1
    outer loop
      vertex 249.7 -11.5 0
      vertex 249.456 -10.2754 0
      vertex 252.9 -11.5 0
    endloop
  endfacet
  facet normal 0 0 -1
    outer loop
      vertex 247.725 -14.4564 0
      vertex 256.107 -15.5566 0
      vertex 256.959 -16 0
    endloop
  endfacet
  facet normal 0 0 -1
    outer loop
      vertex 206.111 -99.5585 0
      vertex 246.5 -14.7 0
      vertex 283 -89 0
    endloop
  endfacet
  facet normal 0 0 -1
    outer loop
      vertex 283 -89 0
      vertex 246.5 -14.7 0
      vertex 256.959 -16 0
    endloop
  endfacet
  facet normal 0 0 -1
    outer loop
      vertex 283 -89 0
      vertex 211.266 -105.048 0
      vertex 208.804 -102.195 0
    endloop
  endfacet
  facet normal 0 0 -1
    outer loop
      vertex 283 -89 0
      vertex 208.804 -102.195 0
      vertex 206.111 -99.5585 0
    endloop
  endfacet
  facet normal 0 0 -1
    outer loop
      vertex 283 -89 0
      vertex 213.481 -108.097 0
      vertex 211.266 -105.048 0
    endloop
  endfacet
  facet normal 0 0 -1
    outer loop
      vertex 266.737 -116.037 0
      vertex 215.434 -111.321 0
      vertex 213.481 -108.097 0
    endloop
  endfacet
  facet normal 0 0 -1
    outer loop
      vertex 266.044 -117.075 0
      vertex 217.11 -114.697 0
      vertex 266.737 -116.037 0
    endloop
  endfacet
  facet normal 0 0 -1
    outer loop
      vertex 218.529 -118.307 0
      vertex 218.497 -118.201 0
      vertex 266.044 -117.075 0
    endloop
  endfacet
  facet normal 0 0 -1
    outer loop
      vertex 259.7 -137.3 0
      vertex 265.8 -118.3 0
      vertex 266.144 -123.941 0
    endloop
  endfacet
  facet normal 0 -0 -1
    outer loop
      vertex 266.737 -120.563 0
      vertex 267.775 -121.256 0
      vertex 266.144 -123.941 0
    endloop
  endfacet
  facet normal 0 0 -1
    outer loop
      vertex 266.044 -119.525 0
      vertex 266.737 -120.563 0
      vertex 266.144 -123.941 0
    endloop
  endfacet
  facet normal 0 0 -1
    outer loop
      vertex 265.8 -118.3 0
      vertex 266.044 -119.525 0
      vertex 266.144 -123.941 0
    endloop
  endfacet
  facet normal -0 0 -1
    outer loop
      vertex 180 -14.2 0
      vertex 169.893 -15.5566 0
      vertex 178.775 -13.9564 0
    endloop
  endfacet
  facet normal -0 0 -1
    outer loop
      vertex 177.737 -13.2627 0
      vertex 174.281 -13.7391 0
      vertex 177.044 -12.2246 0
    endloop
  endfacet
  facet normal -0 0 -1
    outer loop
      vertex 178.775 -13.9564 0
      vertex 169.893 -15.5566 0
      vertex 174.281 -13.7391 0
    endloop
  endfacet
  facet normal -0 0 -1
    outer loop
      vertex 177.044 -12.2246 0
      vertex 174.087 -13.4492 0
      vertex 176.8 -11 0
    endloop
  endfacet
  facet normal 0 0 -1
    outer loop
      vertex 174.281 -13.7391 0
      vertex 174.087 -13.4492 0
      vertex 177.044 -12.2246 0
    endloop
  endfacet
  facet normal 0 0 -1
    outer loop
      vertex 173.6 -11 0
      vertex 177.044 -9.77541 0
      vertex 176.8 -11 0
    endloop
  endfacet
  facet normal -0 0 -1
    outer loop
      vertex 177.044 -9.77541 0
      vertex 173.6 -11 0
      vertex 174.087 -8.55081 0
    endloop
  endfacet
  facet normal 0 0 -1
    outer loop
      vertex 177.737 -8.73724 0
      vertex 174.087 -8.55081 0
      vertex 175.475 -6.4745 0
    endloop
  endfacet
  facet normal -0 0 -1
    outer loop
      vertex 178.775 -8.04358 0
      vertex 177.737 -8.73724 0
      vertex 177.551 -5.08716 0
    endloop
  endfacet
  facet normal 0 0 -1
    outer loop
      vertex 180 -4.59999 0
      vertex 182.449 -5.08716 0
      vertex 180 -7.79999 0
    endloop
  endfacet
  facet normal 0 0 -1
    outer loop
      vertex 182.449 -5.08716 0
      vertex 182.263 -8.73724 0
      vertex 181.225 -8.04358 0
    endloop
  endfacet
  facet normal 0 0 -1
    outer loop
      vertex 182.263 -8.73724 0
      vertex 184.525 -6.4745 0
      vertex 185.913 -8.55081 0
    endloop
  endfacet
  facet normal 0 -0 -1
    outer loop
      vertex 182.449 -5.08716 0
      vertex 184.525 -6.4745 0
      vertex 182.263 -8.73724 0
    endloop
  endfacet
  facet normal 0 0 -1
    outer loop
      vertex 182.956 -9.77541 0
      vertex 182.263 -8.73724 0
      vertex 185.913 -8.55081 0
    endloop
  endfacet
  facet normal -0 0 -1
    outer loop
      vertex 186.126 -9.62502 0
      vertex 182.956 -9.77541 0
      vertex 185.913 -8.55081 0
    endloop
  endfacet
  facet normal 0 0 -1
    outer loop
      vertex 186.126 -9.62502 0
      vertex 183.2 -11 0
      vertex 182.956 -9.77541 0
    endloop
  endfacet
  facet normal 0 -0 -1
    outer loop
      vertex 182.956 -12.2246 0
      vertex 186.6 -9.47557 0
      vertex 182.263 -13.2627 0
    endloop
  endfacet
  facet normal 0 0 -1
    outer loop
      vertex 181.225 -13.9564 0
      vertex 182.263 -13.2627 0
      vertex 204.11 -6.38815 0
    endloop
  endfacet
  facet normal 0 0 -1
    outer loop
      vertex 182.263 -13.2627 0
      vertex 186.6 -9.47557 0
      vertex 195.288 -7.54962 0
    endloop
  endfacet
  facet normal 0 0 -1
    outer loop
      vertex 186.276 -89.1889 0
      vertex 181.225 -13.9564 0
      vertex 189.906 -90.2025 0
    endloop
  endfacet
  facet normal -0 -0 -1
    outer loop
      vertex 243.544 -12.7246 0
      vertex 244.237 -13.7627 0
      vertex 239.4 -9.47557 0
    endloop
  endfacet
  facet normal -0 0 -1
    outer loop
      vertex 246.5 -14.7 0
      vertex 206.111 -99.5585 0
      vertex 245.275 -14.4564 0
    endloop
  endfacet
  facet normal -0 0 -1
    outer loop
      vertex 245.275 -14.4564 0
      vertex 196.848 -93.1208 0
      vertex 244.237 -13.7627 0
    endloop
  endfacet
  facet normal 0 0 -1
    outer loop
      vertex 244.237 -13.7627 0
      vertex 230.712 -7.54962 0
      vertex 239.4 -9.47557 0
    endloop
  endfacet
  facet normal 0 0 -1
    outer loop
      vertex 240.438 -9.80286 0
      vertex 243.544 -10.2754 0
      vertex 243.3 -11.5 0
    endloop
  endfacet
  facet normal 0 0 -1
    outer loop
      vertex 243.544 -10.2754 0
      vertex 240.587 -9.05081 0
      vertex 244.237 -9.23724 0
    endloop
  endfacet
  facet normal 0 0 -1
    outer loop
      vertex 240.438 -9.80286 0
      vertex 240.587 -9.05081 0
      vertex 243.544 -10.2754 0
    endloop
  endfacet
  facet normal 0 0 -1
    outer loop
      vertex 244.237 -9.23724 0
      vertex 241.975 -6.9745 0
      vertex 244.051 -5.58716 0
    endloop
  endfacet
  facet normal 0 0 -1
    outer loop
      vertex 240.587 -9.05081 0
      vertex 241.975 -6.9745 0
      vertex 244.237 -9.23724 0
    endloop
  endfacet
  facet normal 0 0 -1
    outer loop
      vertex 245.275 -8.54358 0
      vertex 244.051 -5.58716 0
      vertex 246.5 -5.09999 0
    endloop
  endfacet
  facet normal 0 0 -1
    outer loop
      vertex 244.237 -9.23724 0
      vertex 244.051 -5.58716 0
      vertex 245.275 -8.54358 0
    endloop
  endfacet
  facet normal -0 0 -1
    outer loop
      vertex 246.5 -8.29999 0
      vertex 245.275 -8.54358 0
      vertex 246.5 -5.09999 0
    endloop
  endfacet
  facet normal 0 0 -1
    outer loop
      vertex 247.725 -8.54358 0
      vertex 246.5 -8.29999 0
      vertex 248.949 -5.58716 0
    endloop
  endfacet
  facet normal 0 -0 -1
    outer loop
      vertex 251.025 -6.9745 0
      vertex 252.413 -9.05081 0
      vertex 248.763 -9.23724 0
    endloop
  endfacet
  facet normal 0 0 -1
    outer loop
      vertex 249.456 -10.2754 0
      vertex 248.763 -9.23724 0
      vertex 252.413 -9.05081 0
    endloop
  endfacet
  facet normal -0 0 -1
    outer loop
      vertex 252.9 -11.5 0
      vertex 252.413 -13.9492 0
      vertex 249.7 -11.5 0
    endloop
  endfacet
  facet normal 0 -0 -1
    outer loop
      vertex 249.7 -11.5 0
      vertex 252.413 -13.9492 0
      vertex 249.456 -12.7246 0
    endloop
  endfacet
  facet normal 0 0 -1
    outer loop
      vertex 249.456 -12.7246 0
      vertex 252.413 -13.9492 0
      vertex 252.372 -14.0097 0
    endloop
  endfacet
  facet normal 0 0 -1
    outer loop
      vertex 248.763 -13.7627 0
      vertex 249.456 -12.7246 0
      vertex 252.372 -14.0097 0
    endloop
  endfacet
  facet normal 0 0 -1
    outer loop
      vertex 246.5 -14.7 0
      vertex 247.725 -14.4564 0
      vertex 256.959 -16 0
    endloop
  endfacet
  facet normal 0 0 -1
    outer loop
      vertex 247.725 -14.4564 0
      vertex 248.763 -13.7627 0
      vertex 252.372 -14.0097 0
    endloop
  endfacet
  facet normal 0 0 -1
    outer loop
      vertex 178.826 -88.0888 0
      vertex 157.956 -59.2246 0
      vertex 158.2 -58 0
    endloop
  endfacet
  facet normal 0 0 -1
    outer loop
      vertex 152.737 -60.2627 0
      vertex 150.475 -62.5255 0
      vertex 149.087 -60.4492 0
    endloop
  endfacet
  facet normal 0 0 -1
    outer loop
      vertex 152.551 -63.9128 0
      vertex 150.475 -62.5255 0
      vertex 152.737 -60.2627 0
    endloop
  endfacet
  facet normal -0 0 -1
    outer loop
      vertex 152.044 -59.2246 0
      vertex 149.087 -60.4492 0
      vertex 151.8 -58 0
    endloop
  endfacet
  facet normal -0 0 -1
    outer loop
      vertex 152.737 -60.2627 0
      vertex 149.087 -60.4492 0
      vertex 152.044 -59.2246 0
    endloop
  endfacet
  facet normal -0 0 -1
    outer loop
      vertex 151.8 -58 0
      vertex 149.087 -60.4492 0
      vertex 148.6 -58 0
    endloop
  endfacet
  facet normal -0 0 -1
    outer loop
      vertex 152.044 -56.7754 0
      vertex 148.6 -58 0
      vertex 149.087 -55.5508 0
    endloop
  endfacet
  facet normal 0 0 -1
    outer loop
      vertex 152.737 -55.7372 0
      vertex 150.475 -53.4745 0
      vertex 152.551 -52.0872 0
    endloop
  endfacet
  facet normal 0 0 -1
    outer loop
      vertex 149.087 -55.5508 0
      vertex 150.475 -53.4745 0
      vertex 152.737 -55.7372 0
    endloop
  endfacet
  facet normal -0 0 -1
    outer loop
      vertex 153.775 -55.0436 0
      vertex 152.737 -55.7372 0
      vertex 152.551 -52.0872 0
    endloop
  endfacet
  facet normal 0 0 -1
    outer loop
      vertex 155 -51.6 0
      vertex 153.775 -55.0436 0
      vertex 152.551 -52.0872 0
    endloop
  endfacet
  facet normal 0 -0 -1
    outer loop
      vertex 155 -51.6 0
      vertex 155 -54.8 0
      vertex 153.775 -55.0436 0
    endloop
  endfacet
  facet normal 0 0 -1
    outer loop
      vertex 171.296 -88.2465 0
      vertex 155 -64.4 0
      vertex 157.263 -60.2627 0
    endloop
  endfacet
  facet normal 0 0 -1
    outer loop
      vertex 180 -14.2 0
      vertex 157.956 -56.7754 0
      vertex 157.263 -55.7372 0
    endloop
  endfacet
  facet normal 0 -0 -1
    outer loop
      vertex 180 -14.2 0
      vertex 181.225 -13.9564 0
      vertex 157.956 -56.7754 0
    endloop
  endfacet
  facet normal 0 0 -1
    outer loop
      vertex 158.2 -58 0
      vertex 181.225 -13.9564 0
      vertex 186.276 -89.1889 0
    endloop
  endfacet
  facet normal 0 0 -1
    outer loop
      vertex 178.826 -88.0888 0
      vertex 175.058 -88.0099 0
      vertex 157.956 -59.2246 0
    endloop
  endfacet
  facet normal -0 0 -1
    outer loop
      vertex 175.058 -88.0099 0
      vertex 171.296 -88.2465 0
      vertex 157.263 -60.2627 0
    endloop
  endfacet
  facet normal 0 0 -1
    outer loop
      vertex 157.263 -60.2627 0
      vertex 155 -64.4 0
      vertex 156.225 -60.9564 0
    endloop
  endfacet
  facet normal 0 0 -1
    outer loop
      vertex 156.225 -60.9564 0
      vertex 155 -64.4 0
      vertex 155 -61.2 0
    endloop
  endfacet
  facet normal 0 -0 -1
    outer loop
      vertex 267.775 -121.256 0
      vertex 269 -121.5 0
      vertex 266.551 -124.213 0
    endloop
  endfacet
  facet normal -0 0 -1
    outer loop
      vertex 273.525 -113.775 0
      vertex 271.263 -116.037 0
      vertex 271.652 -112.523 0
    endloop
  endfacet
  facet normal 0 0 -1
    outer loop
      vertex 266.144 -123.941 0
      vertex 267.775 -121.256 0
      vertex 266.551 -124.213 0
    endloop
  endfacet
  facet normal 0 0 -1
    outer loop
      vertex 275.4 -118.3 0
      vertex 272.2 -118.3 0
      vertex 274.913 -115.851 0
    endloop
  endfacet
  facet normal 0 0 -1
    outer loop
      vertex 259.7 -137.3 0
      vertex 218.529 -118.307 0
      vertex 265.8 -118.3 0
    endloop
  endfacet
  facet normal -0 0 -1
    outer loop
      vertex 265.8 -118.3 0
      vertex 218.529 -118.307 0
      vertex 266.044 -117.075 0
    endloop
  endfacet
  facet normal -0 0 -1
    outer loop
      vertex 266.044 -117.075 0
      vertex 218.497 -118.201 0
      vertex 217.11 -114.697 0
    endloop
  endfacet
  facet normal 0 0 -1
    outer loop
      vertex 266.737 -116.037 0
      vertex 217.11 -114.697 0
      vertex 215.434 -111.321 0
    endloop
  endfacet
  facet normal 0 0 -1
    outer loop
      vertex 283 -89 0
      vertex 266.737 -116.037 0
      vertex 213.481 -108.097 0
    endloop
  endfacet
  facet normal -0 0 -1
    outer loop
      vertex 271.652 -112.523 0
      vertex 267.775 -115.344 0
      vertex 283 -89 0
    endloop
  endfacet
  facet normal 0 0 -1
    outer loop
      vertex 270.225 -115.344 0
      vertex 269 -115.1 0
      vertex 271.652 -112.523 0
    endloop
  endfacet
  facet normal 0 -0 -1
    outer loop
      vertex 273.525 -113.775 0
      vertex 274.913 -115.851 0
      vertex 271.263 -116.037 0
    endloop
  endfacet
  facet normal 0 0 -1
    outer loop
      vertex 274.913 -115.851 0
      vertex 272.2 -118.3 0
      vertex 271.956 -117.075 0
    endloop
  endfacet
  facet normal 0 0 -1
    outer loop
      vertex 274.913 -120.749 0
      vertex 271.956 -119.525 0
      vertex 272.2 -118.3 0
    endloop
  endfacet
  facet normal -0 0 -1
    outer loop
      vertex 274.913 -120.749 0
      vertex 273.525 -122.825 0
      vertex 271.956 -119.525 0
    endloop
  endfacet
  facet normal -0 0 -1
    outer loop
      vertex 273.525 -122.825 0
      vertex 271.449 -124.213 0
      vertex 271.263 -120.563 0
    endloop
  endfacet
  facet normal 0 -0 -1
    outer loop
      vertex 271.263 -120.563 0
      vertex 271.449 -124.213 0
      vertex 270.225 -121.256 0
    endloop
  endfacet
  facet normal 0 -0 -1
    outer loop
      vertex 270.225 -121.256 0
      vertex 271.449 -124.213 0
      vertex 269 -121.5 0
    endloop
  endfacet
  facet normal 0 -0 1
    outer loop
      vertex 269 -124.7 3
      vertex 269 -121.5 3
      vertex 266.551 -124.213 3
    endloop
  endfacet
  facet normal -0 0 1
    outer loop
      vertex 256.959 -16 3
      vertex 283 -89 3
      vertex 283 -16 3
    endloop
  endfacet
  facet normal 0 0 1
    outer loop
      vertex 245.275 -14.4564 3
      vertex 196.848 -93.1208 3
      vertex 200.112 -95.0052 3
    endloop
  endfacet
  facet normal 0 0 1
    outer loop
      vertex 269 -124.7 3
      vertex 271.449 -124.213 3
      vertex 269 -121.5 3
    endloop
  endfacet
  facet normal -0 0 1
    outer loop
      vertex 271.263 -120.563 3
      vertex 273.525 -122.825 3
      vertex 271.956 -119.525 3
    endloop
  endfacet
  facet normal -0 0 1
    outer loop
      vertex 272.2 -118.3 3
      vertex 274.913 -120.749 3
      vertex 275.4 -118.3 3
    endloop
  endfacet
  facet normal -0 0 1
    outer loop
      vertex 271.263 -116.037 3
      vertex 271.956 -117.075 3
      vertex 274.913 -115.851 3
    endloop
  endfacet
  facet normal 0 0 1
    outer loop
      vertex 271.652 -112.523 3
      vertex 270.225 -115.344 3
      vertex 271.263 -116.037 3
    endloop
  endfacet
  facet normal 0 0 1
    outer loop
      vertex 267.775 -115.344 3
      vertex 269 -115.1 3
      vertex 271.652 -112.523 3
    endloop
  endfacet
  facet normal 0 0 1
    outer loop
      vertex 266.737 -116.037 3
      vertex 267.775 -115.344 3
      vertex 283 -89 3
    endloop
  endfacet
  facet normal 0 0 1
    outer loop
      vertex 256.107 -15.5566 3
      vertex 252.372 -14.0097 3
      vertex 247.725 -14.4564 3
    endloop
  endfacet
  facet normal 0 0 1
    outer loop
      vertex 248.949 -5.58716 3
      vertex 247.725 -8.54358 3
      vertex 248.763 -9.23724 3
    endloop
  endfacet
  facet normal -0 0 1
    outer loop
      vertex 249.456 -10.2754 3
      vertex 252.9 -11.5 3
      vertex 252.413 -9.05081 3
    endloop
  endfacet
  facet normal 0 0 1
    outer loop
      vertex 239.4 -9.47557 3
      vertex 243.544 -12.7246 3
      vertex 240.438 -9.80286 3
    endloop
  endfacet
  facet normal 0 0 1
    outer loop
      vertex 243.544 -12.7246 3
      vertex 243.3 -11.5 3
      vertex 240.438 -9.80286 3
    endloop
  endfacet
  facet normal -0 0 1
    outer loop
      vertex 177.551 -5.08716 3
      vertex 178.775 -8.04358 3
      vertex 180 -4.59999 3
    endloop
  endfacet
  facet normal 0 0 1
    outer loop
      vertex 248.949 -5.58716 3
      vertex 248.763 -9.23724 3
      vertex 251.025 -6.9745 3
    endloop
  endfacet
  facet normal 0 0 1
    outer loop
      vertex 246.5 -5.09999 3
      vertex 246.5 -8.29999 3
      vertex 248.949 -5.58716 3
    endloop
  endfacet
  facet normal 0 0 1
    outer loop
      vertex 204.11 -6.38815 3
      vertex 189.906 -90.2025 3
      vertex 193.438 -91.5162 3
    endloop
  endfacet
  facet normal 0 0 1
    outer loop
      vertex 182.956 -12.2246 3
      vertex 186.6 -9.47557 3
      vertex 186.126 -9.62502 3
    endloop
  endfacet
  facet normal -0 0 1
    outer loop
      vertex 181.225 -13.9564 3
      vertex 189.906 -90.2025 3
      vertex 204.11 -6.38815 3
    endloop
  endfacet
  facet normal -0 0 1
    outer loop
      vertex 155 -89 3
      vertex 163.899 -89.6577 3
      vertex 155 -64.4 3
    endloop
  endfacet
  facet normal 0 -0 1
    outer loop
      vertex 163.899 -89.6577 3
      vertex 167.568 -88.7971 3
      vertex 155 -64.4 3
    endloop
  endfacet
  facet normal 0 0 1
    outer loop
      vertex 157.956 -59.2246 3
      vertex 157.263 -60.2627 3
      vertex 175.058 -88.0099 3
    endloop
  endfacet
  facet normal 0 -0 1
    outer loop
      vertex 167.568 -88.7971 3
      vertex 171.296 -88.2465 3
      vertex 155 -64.4 3
    endloop
  endfacet
  facet normal 0 0 1
    outer loop
      vertex 186.276 -89.1889 3
      vertex 158.2 -58 3
      vertex 182.574 -88.4828 3
    endloop
  endfacet
  facet normal 0 0 1
    outer loop
      vertex 181.225 -13.9564 3
      vertex 157.956 -56.7754 3
      vertex 158.2 -58 3
    endloop
  endfacet
  facet normal 0 -0 1
    outer loop
      vertex 174.087 -13.4492 3
      vertex 176.8 -11 3
      vertex 173.6 -11 3
    endloop
  endfacet
  facet normal 0 0 1
    outer loop
      vertex 177.737 -13.2627 3
      vertex 174.281 -13.7391 3
      vertex 178.775 -13.9564 3
    endloop
  endfacet
  facet normal -0 0 1
    outer loop
      vertex 180 -7.79999 3
      vertex 181.225 -8.04358 3
      vertex 182.449 -5.08716 3
    endloop
  endfacet
  facet normal 0 0 1
    outer loop
      vertex 178.775 -8.04358 3
      vertex 180 -7.79999 3
      vertex 180 -4.59999 3
    endloop
  endfacet
  facet normal -0 0 1
    outer loop
      vertex 175.475 -6.4745 3
      vertex 177.737 -8.73724 3
      vertex 177.551 -5.08716 3
    endloop
  endfacet
  facet normal 0 0 1
    outer loop
      vertex 174.087 -8.55081 3
      vertex 177.044 -9.77541 3
      vertex 177.737 -8.73724 3
    endloop
  endfacet
  facet normal 0 -0 1
    outer loop
      vertex 157.263 -55.7372 3
      vertex 180 -14.2 3
      vertex 155 -51.6 3
    endloop
  endfacet
  facet normal 0 0 1
    outer loop
      vertex 169.893 -15.5566 3
      vertex 162 -19.6654 3
      vertex 155 -51.6 3
    endloop
  endfacet
  facet normal 0 0 1
    outer loop
      vertex 162 -19.6654 3
      vertex 155.165 -24.7857 3
      vertex 155 -51.6 3
    endloop
  endfacet
  facet normal -0 0 1
    outer loop
      vertex 169.893 -15.5566 3
      vertex 155 -51.6 3
      vertex 180 -14.2 3
    endloop
  endfacet
  facet normal 0 -0 1
    outer loop
      vertex 155.165 -24.7857 3
      vertex 162 -19.6654 3
      vertex 154.796 -24.255 3
    endloop
  endfacet
  facet normal 0 0 1
    outer loop
      vertex 158.2 -58 3
      vertex 178.826 -88.0888 3
      vertex 182.574 -88.4828 3
    endloop
  endfacet
  facet normal 0 0 1
    outer loop
      vertex 155 -64.4 3
      vertex 153.775 -60.9564 3
      vertex 152.551 -63.9128 3
    endloop
  endfacet
  facet normal 0 0 1
    outer loop
      vertex 155.165 -24.7857 3
      vertex 155 -24.8 3
      vertex 155 -51.6 3
    endloop
  endfacet
  facet normal 0 0 1
    outer loop
      vertex 155 -61.2 3
      vertex 153.775 -60.9564 3
      vertex 155 -64.4 3
    endloop
  endfacet
  facet normal 0 0 1
    outer loop
      vertex 149.087 -55.5508 3
      vertex 152.044 -56.7754 3
      vertex 152.737 -55.7372 3
    endloop
  endfacet
  facet normal 0 0 1
    outer loop
      vertex 148.6 -58 3
      vertex 151.8 -58 3
      vertex 152.044 -56.7754 3
    endloop
  endfacet
  facet normal 0 0 1
    outer loop
      vertex 152.737 -60.2627 3
      vertex 152.551 -63.9128 3
      vertex 153.775 -60.9564 3
    endloop
  endfacet
  facet normal 0 0 1
    outer loop
      vertex 244.237 -13.7627 3
      vertex 230.712 -7.54962 3
      vertex 221.89 -6.38815 3
    endloop
  endfacet
  facet normal 0 0 1
    outer loop
      vertex 155 -89 3
      vertex 159.601 -91.1223 3
      vertex 160.314 -90.8223 3
    endloop
  endfacet
  facet normal 0 -0 1
    outer loop
      vertex 160.314 -90.8223 3
      vertex 163.899 -89.6577 3
      vertex 155 -89 3
    endloop
  endfacet
  facet normal 0 0 1
    outer loop
      vertex 245.275 -14.4564 3
      vertex 203.207 -97.1562 3
      vertex 206.111 -99.5585 3
    endloop
  endfacet
  facet normal 0 0 1
    outer loop
      vertex 156.225 -55.0436 3
      vertex 155 -51.6 3
      vertex 155 -54.8 3
    endloop
  endfacet
  facet normal 0 0 1
    outer loop
      vertex 182.956 -12.2246 3
      vertex 186.126 -9.62502 3
      vertex 183.2 -11 3
    endloop
  endfacet
  facet normal -0 -0 1
    outer loop
      vertex 156.225 -55.0436 3
      vertex 157.263 -55.7372 3
      vertex 155 -51.6 3
    endloop
  endfacet
  facet normal -0 0 1
    outer loop
      vertex 195.288 -7.54962 3
      vertex 182.263 -13.2627 3
      vertex 204.11 -6.38815 3
    endloop
  endfacet
  facet normal -0 0 1
    outer loop
      vertex 193.438 -91.5162 3
      vertex 196.848 -93.1208 3
      vertex 213 -6 3
    endloop
  endfacet
  facet normal -0 0 1
    outer loop
      vertex 204.11 -6.38815 3
      vertex 193.438 -91.5162 3
      vertex 213 -6 3
    endloop
  endfacet
  facet normal 0 0 1
    outer loop
      vertex 196.848 -93.1208 3
      vertex 221.89 -6.38815 3
      vertex 213 -6 3
    endloop
  endfacet
  facet normal -0 0 1
    outer loop
      vertex 200.112 -95.0052 3
      vertex 203.207 -97.1562 3
      vertex 245.275 -14.4564 3
    endloop
  endfacet
  facet normal 0 0 1
    outer loop
      vertex 196.848 -93.1208 3
      vertex 244.237 -13.7627 3
      vertex 221.89 -6.38815 3
    endloop
  endfacet
  facet normal 0 0 1
    outer loop
      vertex 252.9 -11.5 3
      vertex 249.456 -10.2754 3
      vertex 249.7 -11.5 3
    endloop
  endfacet
  facet normal 0 0 1
    outer loop
      vertex 256.959 -16 3
      vertex 256.107 -15.5566 3
      vertex 247.725 -14.4564 3
    endloop
  endfacet
  facet normal 0 0 1
    outer loop
      vertex 283 -89 3
      vertex 246.5 -14.7 3
      vertex 206.111 -99.5585 3
    endloop
  endfacet
  facet normal 0 0 1
    outer loop
      vertex 256.959 -16 3
      vertex 246.5 -14.7 3
      vertex 283 -89 3
    endloop
  endfacet
  facet normal -0 0 1
    outer loop
      vertex 208.804 -102.195 3
      vertex 211.266 -105.048 3
      vertex 283 -89 3
    endloop
  endfacet
  facet normal -0 0 1
    outer loop
      vertex 206.111 -99.5585 3
      vertex 208.804 -102.195 3
      vertex 283 -89 3
    endloop
  endfacet
  facet normal -0 0 1
    outer loop
      vertex 211.266 -105.048 3
      vertex 213.481 -108.097 3
      vertex 283 -89 3
    endloop
  endfacet
  facet normal 0 0 1
    outer loop
      vertex 213.481 -108.097 3
      vertex 215.434 -111.321 3
      vertex 266.737 -116.037 3
    endloop
  endfacet
  facet normal 0 0 1
    outer loop
      vertex 266.737 -116.037 3
      vertex 217.11 -114.697 3
      vertex 266.044 -117.075 3
    endloop
  endfacet
  facet normal 0 0 1
    outer loop
      vertex 266.044 -117.075 3
      vertex 218.497 -118.201 3
      vertex 218.529 -118.307 3
    endloop
  endfacet
  facet normal 0 0 1
    outer loop
      vertex 266.144 -123.941 3
      vertex 265.8 -118.3 3
      vertex 259.7 -137.3 3
    endloop
  endfacet
  facet normal 0 0 1
    outer loop
      vertex 266.144 -123.941 3
      vertex 267.775 -121.256 3
      vertex 266.737 -120.563 3
    endloop
  endfacet
  facet normal 0 -0 1
    outer loop
      vertex 266.144 -123.941 3
      vertex 266.737 -120.563 3
      vertex 266.044 -119.525 3
    endloop
  endfacet
  facet normal 0 0 1
    outer loop
      vertex 266.144 -123.941 3
      vertex 266.044 -119.525 3
      vertex 265.8 -118.3 3
    endloop
  endfacet
  facet normal 0 0 1
    outer loop
      vertex 178.775 -13.9564 3
      vertex 169.893 -15.5566 3
      vertex 180 -14.2 3
    endloop
  endfacet
  facet normal 0 0 1
    outer loop
      vertex 177.044 -12.2246 3
      vertex 174.281 -13.7391 3
      vertex 177.737 -13.2627 3
    endloop
  endfacet
  facet normal 0 0 1
    outer loop
      vertex 174.281 -13.7391 3
      vertex 169.893 -15.5566 3
      vertex 178.775 -13.9564 3
    endloop
  endfacet
  facet normal 0 0 1
    outer loop
      vertex 176.8 -11 3
      vertex 174.087 -13.4492 3
      vertex 177.044 -12.2246 3
    endloop
  endfacet
  facet normal 0 0 1
    outer loop
      vertex 177.044 -12.2246 3
      vertex 174.087 -13.4492 3
      vertex 174.281 -13.7391 3
    endloop
  endfacet
  facet normal 0 -0 1
    outer loop
      vertex 176.8 -11 3
      vertex 177.044 -9.77541 3
      vertex 173.6 -11 3
    endloop
  endfacet
  facet normal 0 0 1
    outer loop
      vertex 174.087 -8.55081 3
      vertex 173.6 -11 3
      vertex 177.044 -9.77541 3
    endloop
  endfacet
  facet normal 0 0 1
    outer loop
      vertex 175.475 -6.4745 3
      vertex 174.087 -8.55081 3
      vertex 177.737 -8.73724 3
    endloop
  endfacet
  facet normal 0 0 1
    outer loop
      vertex 177.551 -5.08716 3
      vertex 177.737 -8.73724 3
      vertex 178.775 -8.04358 3
    endloop
  endfacet
  facet normal 0 0 1
    outer loop
      vertex 180 -7.79999 3
      vertex 182.449 -5.08716 3
      vertex 180 -4.59999 3
    endloop
  endfacet
  facet normal -0 0 1
    outer loop
      vertex 181.225 -8.04358 3
      vertex 182.263 -8.73724 3
      vertex 182.449 -5.08716 3
    endloop
  endfacet
  facet normal 0 0 1
    outer loop
      vertex 185.913 -8.55081 3
      vertex 184.525 -6.4745 3
      vertex 182.263 -8.73724 3
    endloop
  endfacet
  facet normal 0 0 1
    outer loop
      vertex 182.263 -8.73724 3
      vertex 184.525 -6.4745 3
      vertex 182.449 -5.08716 3
    endloop
  endfacet
  facet normal 0 0 1
    outer loop
      vertex 185.913 -8.55081 3
      vertex 182.263 -8.73724 3
      vertex 182.956 -9.77541 3
    endloop
  endfacet
  facet normal 0 0 1
    outer loop
      vertex 185.913 -8.55081 3
      vertex 182.956 -9.77541 3
      vertex 186.126 -9.62502 3
    endloop
  endfacet
  facet normal -0 0 1
    outer loop
      vertex 182.956 -9.77541 3
      vertex 183.2 -11 3
      vertex 186.126 -9.62502 3
    endloop
  endfacet
  facet normal 0 0 1
    outer loop
      vertex 182.263 -13.2627 3
      vertex 186.6 -9.47557 3
      vertex 182.956 -12.2246 3
    endloop
  endfacet
  facet normal 0 0 1
    outer loop
      vertex 204.11 -6.38815 3
      vertex 182.263 -13.2627 3
      vertex 181.225 -13.9564 3
    endloop
  endfacet
  facet normal 0 0 1
    outer loop
      vertex 195.288 -7.54962 3
      vertex 186.6 -9.47557 3
      vertex 182.263 -13.2627 3
    endloop
  endfacet
  facet normal 0 0 1
    outer loop
      vertex 189.906 -90.2025 3
      vertex 181.225 -13.9564 3
      vertex 186.276 -89.1889 3
    endloop
  endfacet
  facet normal 0 0 1
    outer loop
      vertex 239.4 -9.47557 3
      vertex 244.237 -13.7627 3
      vertex 243.544 -12.7246 3
    endloop
  endfacet
  facet normal 0 0 1
    outer loop
      vertex 245.275 -14.4564 3
      vertex 206.111 -99.5585 3
      vertex 246.5 -14.7 3
    endloop
  endfacet
  facet normal 0 0 1
    outer loop
      vertex 244.237 -13.7627 3
      vertex 196.848 -93.1208 3
      vertex 245.275 -14.4564 3
    endloop
  endfacet
  facet normal 0 0 1
    outer loop
      vertex 239.4 -9.47557 3
      vertex 230.712 -7.54962 3
      vertex 244.237 -13.7627 3
    endloop
  endfacet
  facet normal 0 -0 1
    outer loop
      vertex 243.3 -11.5 3
      vertex 243.544 -10.2754 3
      vertex 240.438 -9.80286 3
    endloop
  endfacet
  facet normal 0 0 1
    outer loop
      vertex 244.237 -9.23724 3
      vertex 240.587 -9.05081 3
      vertex 243.544 -10.2754 3
    endloop
  endfacet
  facet normal 0 0 1
    outer loop
      vertex 243.544 -10.2754 3
      vertex 240.587 -9.05081 3
      vertex 240.438 -9.80286 3
    endloop
  endfacet
  facet normal 0 0 1
    outer loop
      vertex 244.051 -5.58716 3
      vertex 241.975 -6.9745 3
      vertex 244.237 -9.23724 3
    endloop
  endfacet
  facet normal 0 0 1
    outer loop
      vertex 244.237 -9.23724 3
      vertex 241.975 -6.9745 3
      vertex 240.587 -9.05081 3
    endloop
  endfacet
  facet normal 0 0 1
    outer loop
      vertex 246.5 -5.09999 3
      vertex 244.051 -5.58716 3
      vertex 245.275 -8.54358 3
    endloop
  endfacet
  facet normal 0 0 1
    outer loop
      vertex 245.275 -8.54358 3
      vertex 244.051 -5.58716 3
      vertex 244.237 -9.23724 3
    endloop
  endfacet
  facet normal 0 0 1
    outer loop
      vertex 246.5 -5.09999 3
      vertex 245.275 -8.54358 3
      vertex 246.5 -8.29999 3
    endloop
  endfacet
  facet normal 0 0 1
    outer loop
      vertex 248.949 -5.58716 3
      vertex 246.5 -8.29999 3
      vertex 247.725 -8.54358 3
    endloop
  endfacet
  facet normal 0 0 1
    outer loop
      vertex 248.763 -9.23724 3
      vertex 252.413 -9.05081 3
      vertex 251.025 -6.9745 3
    endloop
  endfacet
  facet normal 0 0 1
    outer loop
      vertex 252.413 -9.05081 3
      vertex 248.763 -9.23724 3
      vertex 249.456 -10.2754 3
    endloop
  endfacet
  facet normal -0 0 1
    outer loop
      vertex 249.7 -11.5 3
      vertex 252.413 -13.9492 3
      vertex 252.9 -11.5 3
    endloop
  endfacet
  facet normal -0 0 1
    outer loop
      vertex 249.456 -12.7246 3
      vertex 252.413 -13.9492 3
      vertex 249.7 -11.5 3
    endloop
  endfacet
  facet normal 0 -0 1
    outer loop
      vertex 252.372 -14.0097 3
      vertex 252.413 -13.9492 3
      vertex 249.456 -12.7246 3
    endloop
  endfacet
  facet normal 0 0 1
    outer loop
      vertex 252.372 -14.0097 3
      vertex 249.456 -12.7246 3
      vertex 248.763 -13.7627 3
    endloop
  endfacet
  facet normal 0 0 1
    outer loop
      vertex 256.959 -16 3
      vertex 247.725 -14.4564 3
      vertex 246.5 -14.7 3
    endloop
  endfacet
  facet normal 0 0 1
    outer loop
      vertex 252.372 -14.0097 3
      vertex 248.763 -13.7627 3
      vertex 247.725 -14.4564 3
    endloop
  endfacet
  facet normal 0 0 1
    outer loop
      vertex 158.2 -58 3
      vertex 157.956 -59.2246 3
      vertex 178.826 -88.0888 3
    endloop
  endfacet
  facet normal -0 0 1
    outer loop
      vertex 149.087 -60.4492 3
      vertex 150.475 -62.5255 3
      vertex 152.737 -60.2627 3
    endloop
  endfacet
  facet normal 0 0 1
    outer loop
      vertex 152.737 -60.2627 3
      vertex 150.475 -62.5255 3
      vertex 152.551 -63.9128 3
    endloop
  endfacet
  facet normal 0 0 1
    outer loop
      vertex 151.8 -58 3
      vertex 149.087 -60.4492 3
      vertex 152.044 -59.2246 3
    endloop
  endfacet
  facet normal 0 0 1
    outer loop
      vertex 152.044 -59.2246 3
      vertex 149.087 -60.4492 3
      vertex 152.737 -60.2627 3
    endloop
  endfacet
  facet normal -0 0 1
    outer loop
      vertex 148.6 -58 3
      vertex 149.087 -60.4492 3
      vertex 151.8 -58 3
    endloop
  endfacet
  facet normal 0 0 1
    outer loop
      vertex 149.087 -55.5508 3
      vertex 148.6 -58 3
      vertex 152.044 -56.7754 3
    endloop
  endfacet
  facet normal 0 0 1
    outer loop
      vertex 152.551 -52.0872 3
      vertex 150.475 -53.4745 3
      vertex 152.737 -55.7372 3
    endloop
  endfacet
  facet normal 0 0 1
    outer loop
      vertex 152.737 -55.7372 3
      vertex 150.475 -53.4745 3
      vertex 149.087 -55.5508 3
    endloop
  endfacet
  facet normal 0 0 1
    outer loop
      vertex 152.551 -52.0872 3
      vertex 152.737 -55.7372 3
      vertex 153.775 -55.0436 3
    endloop
  endfacet
  facet normal -0 0 1
    outer loop
      vertex 152.551 -52.0872 3
      vertex 153.775 -55.0436 3
      vertex 155 -51.6 3
    endloop
  endfacet
  facet normal 0 0 1
    outer loop
      vertex 153.775 -55.0436 3
      vertex 155 -54.8 3
      vertex 155 -51.6 3
    endloop
  endfacet
  facet normal 0 0 1
    outer loop
      vertex 157.263 -60.2627 3
      vertex 155 -64.4 3
      vertex 171.296 -88.2465 3
    endloop
  endfacet
  facet normal -0 0 1
    outer loop
      vertex 157.263 -55.7372 3
      vertex 157.956 -56.7754 3
      vertex 180 -14.2 3
    endloop
  endfacet
  facet normal 0 0 1
    outer loop
      vertex 157.956 -56.7754 3
      vertex 181.225 -13.9564 3
      vertex 180 -14.2 3
    endloop
  endfacet
  facet normal 0 0 1
    outer loop
      vertex 186.276 -89.1889 3
      vertex 181.225 -13.9564 3
      vertex 158.2 -58 3
    endloop
  endfacet
  facet normal 0 0 1
    outer loop
      vertex 157.956 -59.2246 3
      vertex 175.058 -88.0099 3
      vertex 178.826 -88.0888 3
    endloop
  endfacet
  facet normal 0 0 1
    outer loop
      vertex 157.263 -60.2627 3
      vertex 171.296 -88.2465 3
      vertex 175.058 -88.0099 3
    endloop
  endfacet
  facet normal -0 0 1
    outer loop
      vertex 156.225 -60.9564 3
      vertex 155 -64.4 3
      vertex 157.263 -60.2627 3
    endloop
  endfacet
  facet normal -0 0 1
    outer loop
      vertex 155 -61.2 3
      vertex 155 -64.4 3
      vertex 156.225 -60.9564 3
    endloop
  endfacet
  facet normal 0 0 1
    outer loop
      vertex 266.551 -124.213 3
      vertex 269 -121.5 3
      vertex 267.775 -121.256 3
    endloop
  endfacet
  facet normal 0 0 1
    outer loop
      vertex 271.652 -112.523 3
      vertex 271.263 -116.037 3
      vertex 273.525 -113.775 3
    endloop
  endfacet
  facet normal 0 -0 1
    outer loop
      vertex 266.551 -124.213 3
      vertex 267.775 -121.256 3
      vertex 266.144 -123.941 3
    endloop
  endfacet
  facet normal 0 0 1
    outer loop
      vertex 274.913 -115.851 3
      vertex 272.2 -118.3 3
      vertex 275.4 -118.3 3
    endloop
  endfacet
  facet normal 0 0 1
    outer loop
      vertex 265.8 -118.3 3
      vertex 218.529 -118.307 3
      vertex 259.7 -137.3 3
    endloop
  endfacet
  facet normal 0 0 1
    outer loop
      vertex 266.044 -117.075 3
      vertex 218.529 -118.307 3
      vertex 265.8 -118.3 3
    endloop
  endfacet
  facet normal 0 0 1
    outer loop
      vertex 217.11 -114.697 3
      vertex 218.497 -118.201 3
      vertex 266.044 -117.075 3
    endloop
  endfacet
  facet normal 0 0 1
    outer loop
      vertex 215.434 -111.321 3
      vertex 217.11 -114.697 3
      vertex 266.737 -116.037 3
    endloop
  endfacet
  facet normal -0 0 1
    outer loop
      vertex 213.481 -108.097 3
      vertex 266.737 -116.037 3
      vertex 283 -89 3
    endloop
  endfacet
  facet normal 0 0 1
    outer loop
      vertex 283 -89 3
      vertex 267.775 -115.344 3
      vertex 271.652 -112.523 3
    endloop
  endfacet
  facet normal 0 0 1
    outer loop
      vertex 271.652 -112.523 3
      vertex 269 -115.1 3
      vertex 270.225 -115.344 3
    endloop
  endfacet
  facet normal 0 0 1
    outer loop
      vertex 271.263 -116.037 3
      vertex 274.913 -115.851 3
      vertex 273.525 -113.775 3
    endloop
  endfacet
  facet normal -0 0 1
    outer loop
      vertex 271.956 -117.075 3
      vertex 272.2 -118.3 3
      vertex 274.913 -115.851 3
    endloop
  endfacet
  facet normal 0 0 1
    outer loop
      vertex 272.2 -118.3 3
      vertex 271.956 -119.525 3
      vertex 274.913 -120.749 3
    endloop
  endfacet
  facet normal 0 0 1
    outer loop
      vertex 271.956 -119.525 3
      vertex 273.525 -122.825 3
      vertex 274.913 -120.749 3
    endloop
  endfacet
  facet normal 0 0 1
    outer loop
      vertex 271.263 -120.563 3
      vertex 271.449 -124.213 3
      vertex 273.525 -122.825 3
    endloop
  endfacet
  facet normal -0 0 1
    outer loop
      vertex 270.225 -121.256 3
      vertex 271.449 -124.213 3
      vertex 271.263 -120.563 3
    endloop
  endfacet
  facet normal -0 0 1
    outer loop
      vertex 269 -121.5 3
      vertex 271.449 -124.213 3
      vertex 270.225 -121.256 3
    endloop
  endfacet
  facet normal -0.555643 -0.831421 0
    outer loop
      vertex 266.551 -124.213 0
      vertex 266.144 -123.941 3
      vertex 266.144 -123.941 0
    endloop
  endfacet
  facet normal -0.555643 -0.831421 0
    outer loop
      vertex 266.551 -124.213 0
      vertex 266.551 -124.213 3
      vertex 266.144 -123.941 3
    endloop
  endfacet
  facet normal -0.195038 -0.980796 0
    outer loop
      vertex 269 -124.7 0
      vertex 266.551 -124.213 3
      vertex 266.551 -124.213 0
    endloop
  endfacet
  facet normal -0.195038 -0.980796 0
    outer loop
      vertex 269 -124.7 0
      vertex 269 -124.7 3
      vertex 266.551 -124.213 3
    endloop
  endfacet
  facet normal 0.195038 -0.980796 0
    outer loop
      vertex 271.449 -124.213 0
      vertex 269 -124.7 3
      vertex 269 -124.7 0
    endloop
  endfacet
  facet normal 0.195038 -0.980796 0
    outer loop
      vertex 271.449 -124.213 0
      vertex 271.449 -124.213 3
      vertex 269 -124.7 3
    endloop
  endfacet
  facet normal 0.555809 -0.83131 0
    outer loop
      vertex 273.525 -122.825 0
      vertex 271.449 -124.213 3
      vertex 271.449 -124.213 0
    endloop
  endfacet
  facet normal 0.555809 -0.83131 0
    outer loop
      vertex 273.525 -122.825 0
      vertex 273.525 -122.825 3
      vertex 271.449 -124.213 3
    endloop
  endfacet
  facet normal 0.83131 -0.555809 0
    outer loop
      vertex 274.913 -120.749 0
      vertex 273.525 -122.825 3
      vertex 273.525 -122.825 0
    endloop
  endfacet
  facet normal 0.83131 -0.555809 0
    outer loop
      vertex 274.913 -120.749 0
      vertex 274.913 -120.749 3
      vertex 273.525 -122.825 3
    endloop
  endfacet
  facet normal 0.980796 -0.195038 0
    outer loop
      vertex 275.4 -118.3 0
      vertex 274.913 -120.749 3
      vertex 274.913 -120.749 0
    endloop
  endfacet
  facet normal 0.980796 -0.195038 0
    outer loop
      vertex 275.4 -118.3 0
      vertex 275.4 -118.3 3
      vertex 274.913 -120.749 3
    endloop
  endfacet
  facet normal 0.980796 0.195038 0
    outer loop
      vertex 274.913 -115.851 0
      vertex 275.4 -118.3 3
      vertex 275.4 -118.3 0
    endloop
  endfacet
  facet normal 0.980796 0.195038 -0
    outer loop
      vertex 274.913 -115.851 0
      vertex 274.913 -115.851 3
      vertex 275.4 -118.3 3
    endloop
  endfacet
  facet normal 0.83131 0.555809 0
    outer loop
      vertex 273.525 -113.775 0
      vertex 274.913 -115.851 3
      vertex 274.913 -115.851 0
    endloop
  endfacet
  facet normal 0.83131 0.555809 -0
    outer loop
      vertex 273.525 -113.775 0
      vertex 273.525 -113.775 3
      vertex 274.913 -115.851 3
    endloop
  endfacet
  facet normal 0.555724 0.831367 0
    outer loop
      vertex 271.652 -112.523 0
      vertex 273.525 -113.775 3
      vertex 273.525 -113.775 0
    endloop
  endfacet
  facet normal 0.555724 0.831367 -0
    outer loop
      vertex 271.652 -112.523 0
      vertex 271.652 -112.523 3
      vertex 273.525 -113.775 3
    endloop
  endfacet
  facet normal 0.90067 -0.434503 0
    outer loop
      vertex 283 -89 0
      vertex 271.652 -112.523 3
      vertex 271.652 -112.523 0
    endloop
  endfacet
  facet normal 0.90067 -0.434503 0
    outer loop
      vertex 283 -89 0
      vertex 283 -89 3
      vertex 271.652 -112.523 3
    endloop
  endfacet
  facet normal 1 0 0
    outer loop
      vertex 283 -16 0
      vertex 283 -89 3
      vertex 283 -89 0
    endloop
  endfacet
  facet normal 1 0 -0
    outer loop
      vertex 283 -16 0
      vertex 283 -16 3
      vertex 283 -89 3
    endloop
  endfacet
  facet normal 0 1 0
    outer loop
      vertex 256.959 -16 0
      vertex 283 -16 3
      vertex 283 -16 0
    endloop
  endfacet
  facet normal 0 1 0
    outer loop
      vertex 256.959 -16 0
      vertex 256.959 -16 3
      vertex 283 -16 3
    endloop
  endfacet
  facet normal 0.461648 0.887063 0
    outer loop
      vertex 256.107 -15.5566 0
      vertex 256.959 -16 3
      vertex 256.959 -16 0
    endloop
  endfacet
  facet normal 0.461648 0.887063 -0
    outer loop
      vertex 256.107 -15.5566 0
      vertex 256.107 -15.5566 3
      vertex 256.959 -16 3
    endloop
  endfacet
  facet normal 0.382644 0.923896 0
    outer loop
      vertex 252.372 -14.0097 0
      vertex 256.107 -15.5566 3
      vertex 256.107 -15.5566 0
    endloop
  endfacet
  facet normal 0.382644 0.923896 -0
    outer loop
      vertex 252.372 -14.0097 0
      vertex 252.372 -14.0097 3
      vertex 256.107 -15.5566 3
    endloop
  endfacet
  facet normal 0.827816 -0.560999 0
    outer loop
      vertex 252.413 -13.9492 0
      vertex 252.372 -14.0097 3
      vertex 252.372 -14.0097 0
    endloop
  endfacet
  facet normal 0.827816 -0.560999 0
    outer loop
      vertex 252.413 -13.9492 0
      vertex 252.413 -13.9492 3
      vertex 252.372 -14.0097 3
    endloop
  endfacet
  facet normal 0.980799 -0.195022 0
    outer loop
      vertex 252.9 -11.5 0
      vertex 252.413 -13.9492 3
      vertex 252.413 -13.9492 0
    endloop
  endfacet
  facet normal 0.980799 -0.195022 0
    outer loop
      vertex 252.9 -11.5 0
      vertex 252.9 -11.5 3
      vertex 252.413 -13.9492 3
    endloop
  endfacet
  facet normal 0.980799 0.195023 0
    outer loop
      vertex 252.413 -9.05081 0
      vertex 252.9 -11.5 3
      vertex 252.9 -11.5 0
    endloop
  endfacet
  facet normal 0.980799 0.195023 -0
    outer loop
      vertex 252.413 -9.05081 0
      vertex 252.413 -9.05081 3
      vertex 252.9 -11.5 3
    endloop
  endfacet
  facet normal 0.831349 0.555751 0
    outer loop
      vertex 251.025 -6.9745 0
      vertex 252.413 -9.05081 3
      vertex 252.413 -9.05081 0
    endloop
  endfacet
  facet normal 0.831349 0.555751 -0
    outer loop
      vertex 251.025 -6.9745 0
      vertex 251.025 -6.9745 3
      vertex 252.413 -9.05081 3
    endloop
  endfacet
  facet normal 0.555626 0.831432 0
    outer loop
      vertex 248.949 -5.58716 0
      vertex 251.025 -6.9745 3
      vertex 251.025 -6.9745 0
    endloop
  endfacet
  facet normal 0.555626 0.831432 -0
    outer loop
      vertex 248.949 -5.58716 0
      vertex 248.949 -5.58716 3
      vertex 251.025 -6.9745 3
    endloop
  endfacet
  facet normal 0.195103 0.980783 0
    outer loop
      vertex 246.5 -5.09999 0
      vertex 248.949 -5.58716 3
      vertex 248.949 -5.58716 0
    endloop
  endfacet
  facet normal 0.195103 0.980783 -0
    outer loop
      vertex 246.5 -5.09999 0
      vertex 246.5 -5.09999 3
      vertex 248.949 -5.58716 3
    endloop
  endfacet
  facet normal -0.195103 0.980783 0
    outer loop
      vertex 244.051 -5.58716 0
      vertex 246.5 -5.09999 3
      vertex 246.5 -5.09999 0
    endloop
  endfacet
  facet normal -0.195103 0.980783 0
    outer loop
      vertex 244.051 -5.58716 0
      vertex 244.051 -5.58716 3
      vertex 246.5 -5.09999 3
    endloop
  endfacet
  facet normal -0.555626 0.831432 0
    outer loop
      vertex 241.975 -6.9745 0
      vertex 244.051 -5.58716 3
      vertex 244.051 -5.58716 0
    endloop
  endfacet
  facet normal -0.555626 0.831432 0
    outer loop
      vertex 241.975 -6.9745 0
      vertex 241.975 -6.9745 3
      vertex 244.051 -5.58716 3
    endloop
  endfacet
  facet normal -0.831349 0.555751 0
    outer loop
      vertex 240.587 -9.05081 0
      vertex 241.975 -6.9745 3
      vertex 241.975 -6.9745 0
    endloop
  endfacet
  facet normal -0.831349 0.555751 0
    outer loop
      vertex 240.587 -9.05081 0
      vertex 240.587 -9.05081 3
      vertex 241.975 -6.9745 3
    endloop
  endfacet
  facet normal -0.980933 0.194347 0
    outer loop
      vertex 240.438 -9.80286 0
      vertex 240.587 -9.05081 3
      vertex 240.587 -9.05081 0
    endloop
  endfacet
  facet normal -0.980933 0.194347 0
    outer loop
      vertex 240.438 -9.80286 0
      vertex 240.438 -9.80286 3
      vertex 240.587 -9.05081 3
    endloop
  endfacet
  facet normal 0.300714 0.953714 0
    outer loop
      vertex 239.4 -9.47557 0
      vertex 240.438 -9.80286 3
      vertex 240.438 -9.80286 0
    endloop
  endfacet
  facet normal 0.300714 0.953714 -0
    outer loop
      vertex 239.4 -9.47557 0
      vertex 239.4 -9.47557 3
      vertex 240.438 -9.80286 3
    endloop
  endfacet
  facet normal 0.216425 0.976299 0
    outer loop
      vertex 230.712 -7.54962 0
      vertex 239.4 -9.47557 3
      vertex 239.4 -9.47557 0
    endloop
  endfacet
  facet normal 0.216425 0.976299 -0
    outer loop
      vertex 230.712 -7.54962 0
      vertex 230.712 -7.54962 3
      vertex 239.4 -9.47557 3
    endloop
  endfacet
  facet normal 0.13053 0.991444 0
    outer loop
      vertex 221.89 -6.38815 0
      vertex 230.712 -7.54962 3
      vertex 230.712 -7.54962 0
    endloop
  endfacet
  facet normal 0.13053 0.991444 -0
    outer loop
      vertex 221.89 -6.38815 0
      vertex 221.89 -6.38815 3
      vertex 230.712 -7.54962 3
    endloop
  endfacet
  facet normal 0.0436199 0.999048 0
    outer loop
      vertex 213 -6 0
      vertex 221.89 -6.38815 3
      vertex 221.89 -6.38815 0
    endloop
  endfacet
  facet normal 0.0436199 0.999048 -0
    outer loop
      vertex 213 -6 0
      vertex 213 -6 3
      vertex 221.89 -6.38815 3
    endloop
  endfacet
  facet normal -0.0436199 0.999048 0
    outer loop
      vertex 204.11 -6.38815 0
      vertex 213 -6 3
      vertex 213 -6 0
    endloop
  endfacet
  facet normal -0.0436199 0.999048 0
    outer loop
      vertex 204.11 -6.38815 0
      vertex 204.11 -6.38815 3
      vertex 213 -6 3
    endloop
  endfacet
  facet normal -0.13053 0.991444 0
    outer loop
      vertex 195.288 -7.54962 0
      vertex 204.11 -6.38815 3
      vertex 204.11 -6.38815 0
    endloop
  endfacet
  facet normal -0.13053 0.991444 0
    outer loop
      vertex 195.288 -7.54962 0
      vertex 195.288 -7.54962 3
      vertex 204.11 -6.38815 3
    endloop
  endfacet
  facet normal -0.216425 0.976299 0
    outer loop
      vertex 186.6 -9.47557 0
      vertex 195.288 -7.54962 3
      vertex 195.288 -7.54962 0
    endloop
  endfacet
  facet normal -0.216425 0.976299 0
    outer loop
      vertex 186.6 -9.47557 0
      vertex 186.6 -9.47557 3
      vertex 195.288 -7.54962 3
    endloop
  endfacet
  facet normal -0.300703 0.953718 0
    outer loop
      vertex 186.126 -9.62502 0
      vertex 186.6 -9.47557 3
      vertex 186.6 -9.47557 0
    endloop
  endfacet
  facet normal -0.300703 0.953718 0
    outer loop
      vertex 186.126 -9.62502 0
      vertex 186.126 -9.62502 3
      vertex 186.6 -9.47557 3
    endloop
  endfacet
  facet normal 0.980903 0.194499 0
    outer loop
      vertex 185.913 -8.55081 0
      vertex 186.126 -9.62502 3
      vertex 186.126 -9.62502 0
    endloop
  endfacet
  facet normal 0.980903 0.194499 -0
    outer loop
      vertex 185.913 -8.55081 0
      vertex 185.913 -8.55081 3
      vertex 186.126 -9.62502 3
    endloop
  endfacet
  facet normal 0.831349 0.555751 0
    outer loop
      vertex 184.525 -6.4745 0
      vertex 185.913 -8.55081 3
      vertex 185.913 -8.55081 0
    endloop
  endfacet
  facet normal 0.831349 0.555751 -0
    outer loop
      vertex 184.525 -6.4745 0
      vertex 184.525 -6.4745 3
      vertex 185.913 -8.55081 3
    endloop
  endfacet
  facet normal 0.555626 0.831432 0
    outer loop
      vertex 182.449 -5.08716 0
      vertex 184.525 -6.4745 3
      vertex 184.525 -6.4745 0
    endloop
  endfacet
  facet normal 0.555626 0.831432 -0
    outer loop
      vertex 182.449 -5.08716 0
      vertex 182.449 -5.08716 3
      vertex 184.525 -6.4745 3
    endloop
  endfacet
  facet normal 0.195103 0.980783 0
    outer loop
      vertex 180 -4.59999 0
      vertex 182.449 -5.08716 3
      vertex 182.449 -5.08716 0
    endloop
  endfacet
  facet normal 0.195103 0.980783 -0
    outer loop
      vertex 180 -4.59999 0
      vertex 180 -4.59999 3
      vertex 182.449 -5.08716 3
    endloop
  endfacet
  facet normal -0.195103 0.980783 0
    outer loop
      vertex 177.551 -5.08716 0
      vertex 180 -4.59999 3
      vertex 180 -4.59999 0
    endloop
  endfacet
  facet normal -0.195103 0.980783 0
    outer loop
      vertex 177.551 -5.08716 0
      vertex 177.551 -5.08716 3
      vertex 180 -4.59999 3
    endloop
  endfacet
  facet normal -0.555626 0.831432 0
    outer loop
      vertex 175.475 -6.4745 0
      vertex 177.551 -5.08716 3
      vertex 177.551 -5.08716 0
    endloop
  endfacet
  facet normal -0.555626 0.831432 0
    outer loop
      vertex 175.475 -6.4745 0
      vertex 175.475 -6.4745 3
      vertex 177.551 -5.08716 3
    endloop
  endfacet
  facet normal -0.831349 0.555751 0
    outer loop
      vertex 174.087 -8.55081 0
      vertex 175.475 -6.4745 3
      vertex 175.475 -6.4745 0
    endloop
  endfacet
  facet normal -0.831349 0.555751 0
    outer loop
      vertex 174.087 -8.55081 0
      vertex 174.087 -8.55081 3
      vertex 175.475 -6.4745 3
    endloop
  endfacet
  facet normal -0.980799 0.195023 0
    outer loop
      vertex 173.6 -11 0
      vertex 174.087 -8.55081 3
      vertex 174.087 -8.55081 0
    endloop
  endfacet
  facet normal -0.980799 0.195023 0
    outer loop
      vertex 173.6 -11 0
      vertex 173.6 -11 3
      vertex 174.087 -8.55081 3
    endloop
  endfacet
  facet normal -0.980799 -0.195022 0
    outer loop
      vertex 174.087 -13.4492 0
      vertex 173.6 -11 3
      vertex 173.6 -11 0
    endloop
  endfacet
  facet normal -0.980799 -0.195022 0
    outer loop
      vertex 174.087 -13.4492 0
      vertex 174.087 -13.4492 3
      vertex 173.6 -11 3
    endloop
  endfacet
  facet normal -0.831079 -0.556155 0
    outer loop
      vertex 174.281 -13.7391 0
      vertex 174.087 -13.4492 3
      vertex 174.087 -13.4492 0
    endloop
  endfacet
  facet normal -0.831079 -0.556155 0
    outer loop
      vertex 174.281 -13.7391 0
      vertex 174.281 -13.7391 3
      vertex 174.087 -13.4492 3
    endloop
  endfacet
  facet normal -0.382671 0.923885 0
    outer loop
      vertex 169.893 -15.5566 0
      vertex 174.281 -13.7391 3
      vertex 174.281 -13.7391 0
    endloop
  endfacet
  facet normal -0.382671 0.923885 0
    outer loop
      vertex 169.893 -15.5566 0
      vertex 169.893 -15.5566 3
      vertex 174.281 -13.7391 3
    endloop
  endfacet
  facet normal -0.461745 0.887012 0
    outer loop
      vertex 162 -19.6654 0
      vertex 169.893 -15.5566 3
      vertex 169.893 -15.5566 0
    endloop
  endfacet
  facet normal -0.461745 0.887012 0
    outer loop
      vertex 162 -19.6654 0
      vertex 162 -19.6654 3
      vertex 169.893 -15.5566 3
    endloop
  endfacet
  facet normal -0.537312 0.843384 0
    outer loop
      vertex 154.796 -24.255 0
      vertex 162 -19.6654 3
      vertex 162 -19.6654 0
    endloop
  endfacet
  facet normal -0.537312 0.843384 0
    outer loop
      vertex 154.796 -24.255 0
      vertex 154.796 -24.255 3
      vertex 162 -19.6654 3
    endloop
  endfacet
  facet normal -0.821038 -0.570874 0
    outer loop
      vertex 155.165 -24.7857 0
      vertex 154.796 -24.255 3
      vertex 154.796 -24.255 0
    endloop
  endfacet
  facet normal -0.821038 -0.570874 0
    outer loop
      vertex 155.165 -24.7857 0
      vertex 155.165 -24.7857 3
      vertex 154.796 -24.255 3
    endloop
  endfacet
  facet normal -0.086343 0.996265 0
    outer loop
      vertex 155 -24.8 0
      vertex 155.165 -24.7857 3
      vertex 155.165 -24.7857 0
    endloop
  endfacet
  facet normal -0.086343 0.996265 0
    outer loop
      vertex 155 -24.8 0
      vertex 155 -24.8 3
      vertex 155.165 -24.7857 3
    endloop
  endfacet
  facet normal -1 0 0
    outer loop
      vertex 155 -51.6 0
      vertex 155 -24.8 3
      vertex 155 -24.8 0
    endloop
  endfacet
  facet normal -1 0 0
    outer loop
      vertex 155 -51.6 0
      vertex 155 -51.6 3
      vertex 155 -24.8 3
    endloop
  endfacet
  facet normal -0.195115 0.98078 0
    outer loop
      vertex 152.551 -52.0872 0
      vertex 155 -51.6 3
      vertex 155 -51.6 0
    endloop
  endfacet
  facet normal -0.195115 0.98078 0
    outer loop
      vertex 152.551 -52.0872 0
      vertex 152.551 -52.0872 3
      vertex 155 -51.6 3
    endloop
  endfacet
  facet normal -0.555615 0.83144 0
    outer loop
      vertex 150.475 -53.4745 0
      vertex 152.551 -52.0872 3
      vertex 152.551 -52.0872 0
    endloop
  endfacet
  facet normal -0.555615 0.83144 0
    outer loop
      vertex 150.475 -53.4745 0
      vertex 150.475 -53.4745 3
      vertex 152.551 -52.0872 3
    endloop
  endfacet
  facet normal -0.831347 0.555753 0
    outer loop
      vertex 149.087 -55.5508 0
      vertex 150.475 -53.4745 3
      vertex 150.475 -53.4745 0
    endloop
  endfacet
  facet normal -0.831347 0.555753 0
    outer loop
      vertex 149.087 -55.5508 0
      vertex 149.087 -55.5508 3
      vertex 150.475 -53.4745 3
    endloop
  endfacet
  facet normal -0.980799 0.195022 0
    outer loop
      vertex 148.6 -58 0
      vertex 149.087 -55.5508 3
      vertex 149.087 -55.5508 0
    endloop
  endfacet
  facet normal -0.980799 0.195022 0
    outer loop
      vertex 148.6 -58 0
      vertex 148.6 -58 3
      vertex 149.087 -55.5508 3
    endloop
  endfacet
  facet normal -0.980799 -0.195022 0
    outer loop
      vertex 149.087 -60.4492 0
      vertex 148.6 -58 3
      vertex 148.6 -58 0
    endloop
  endfacet
  facet normal -0.980799 -0.195022 0
    outer loop
      vertex 149.087 -60.4492 0
      vertex 149.087 -60.4492 3
      vertex 148.6 -58 3
    endloop
  endfacet
  facet normal -0.831347 -0.555753 0
    outer loop
      vertex 150.475 -62.5255 0
      vertex 149.087 -60.4492 3
      vertex 149.087 -60.4492 0
    endloop
  endfacet
  facet normal -0.831347 -0.555753 0
    outer loop
      vertex 150.475 -62.5255 0
      vertex 150.475 -62.5255 3
      vertex 149.087 -60.4492 3
    endloop
  endfacet
  facet normal -0.555615 -0.83144 0
    outer loop
      vertex 152.551 -63.9128 0
      vertex 150.475 -62.5255 3
      vertex 150.475 -62.5255 0
    endloop
  endfacet
  facet normal -0.555615 -0.83144 0
    outer loop
      vertex 152.551 -63.9128 0
      vertex 152.551 -63.9128 3
      vertex 150.475 -62.5255 3
    endloop
  endfacet
  facet normal -0.195115 -0.98078 0
    outer loop
      vertex 155 -64.4 0
      vertex 152.551 -63.9128 3
      vertex 152.551 -63.9128 0
    endloop
  endfacet
  facet normal -0.195115 -0.98078 0
    outer loop
      vertex 155 -64.4 0
      vertex 155 -64.4 3
      vertex 152.551 -63.9128 3
    endloop
  endfacet
  facet normal -1 0 0
    outer loop
      vertex 155 -89 0
      vertex 155 -64.4 3
      vertex 155 -64.4 0
    endloop
  endfacet
  facet normal -1 0 0
    outer loop
      vertex 155 -89 0
      vertex 155 -89 3
      vertex 155 -64.4 3
    endloop
  endfacet
  facet normal -0.418857 -0.908052 0
    outer loop
      vertex 159.601 -91.1223 0
      vertex 155 -89 3
      vertex 155 -89 0
    endloop
  endfacet
  facet normal -0.418857 -0.908052 0
    outer loop
      vertex 159.601 -91.1223 0
      vertex 159.601 -91.1223 3
      vertex 155 -89 3
    endloop
  endfacet
  facet normal 0.387826 -0.921733 0
    outer loop
      vertex 160.314 -90.8223 0
      vertex 159.601 -91.1223 3
      vertex 159.601 -91.1223 0
    endloop
  endfacet
  facet normal 0.387826 -0.921733 0
    outer loop
      vertex 160.314 -90.8223 0
      vertex 160.314 -90.8223 3
      vertex 159.601 -91.1223 3
    endloop
  endfacet
  facet normal 0.30896 -0.951075 0
    outer loop
      vertex 163.899 -89.6577 0
      vertex 160.314 -90.8223 3
      vertex 160.314 -90.8223 0
    endloop
  endfacet
  facet normal 0.30896 -0.951075 0
    outer loop
      vertex 163.899 -89.6577 0
      vertex 163.899 -89.6577 3
      vertex 160.314 -90.8223 3
    endloop
  endfacet
  facet normal 0.228362 -0.973576 0
    outer loop
      vertex 167.568 -88.7971 0
      vertex 163.899 -89.6577 3
      vertex 163.899 -89.6577 0
    endloop
  endfacet
  facet normal 0.228362 -0.973576 0
    outer loop
      vertex 167.568 -88.7971 0
      vertex 167.568 -88.7971 3
      vertex 163.899 -89.6577 3
    endloop
  endfacet
  facet normal 0.146108 -0.989269 0
    outer loop
      vertex 171.296 -88.2465 0
      vertex 167.568 -88.7971 3
      vertex 167.568 -88.7971 0
    endloop
  endfacet
  facet normal 0.146108 -0.989269 0
    outer loop
      vertex 171.296 -88.2465 0
      vertex 171.296 -88.2465 3
      vertex 167.568 -88.7971 3
    endloop
  endfacet
  facet normal 0.0627681 -0.998028 0
    outer loop
      vertex 175.058 -88.0099 0
      vertex 171.296 -88.2465 3
      vertex 171.296 -88.2465 0
    endloop
  endfacet
  facet normal 0.0627681 -0.998028 0
    outer loop
      vertex 175.058 -88.0099 0
      vertex 175.058 -88.0099 3
      vertex 171.296 -88.2465 3
    endloop
  endfacet
  facet normal -0.0209349 -0.999781 0
    outer loop
      vertex 178.826 -88.0888 0
      vertex 175.058 -88.0099 3
      vertex 175.058 -88.0099 0
    endloop
  endfacet
  facet normal -0.0209349 -0.999781 0
    outer loop
      vertex 178.826 -88.0888 0
      vertex 178.826 -88.0888 3
      vertex 175.058 -88.0099 3
    endloop
  endfacet
  facet normal -0.104547 -0.99452 0
    outer loop
      vertex 182.574 -88.4828 0
      vertex 178.826 -88.0888 3
      vertex 178.826 -88.0888 0
    endloop
  endfacet
  facet normal -0.104547 -0.99452 0
    outer loop
      vertex 182.574 -88.4828 0
      vertex 182.574 -88.4828 3
      vertex 178.826 -88.0888 3
    endloop
  endfacet
  facet normal -0.187357 -0.982292 0
    outer loop
      vertex 186.276 -89.1889 0
      vertex 182.574 -88.4828 3
      vertex 182.574 -88.4828 0
    endloop
  endfacet
  facet normal -0.187357 -0.982292 0
    outer loop
      vertex 186.276 -89.1889 0
      vertex 186.276 -89.1889 3
      vertex 182.574 -88.4828 3
    endloop
  endfacet
  facet normal -0.268941 -0.963157 0
    outer loop
      vertex 189.906 -90.2025 0
      vertex 186.276 -89.1889 3
      vertex 186.276 -89.1889 0
    endloop
  endfacet
  facet normal -0.268941 -0.963157 0
    outer loop
      vertex 189.906 -90.2025 0
      vertex 189.906 -90.2025 3
      vertex 186.276 -89.1889 3
    endloop
  endfacet
  facet normal -0.34861 -0.937268 0
    outer loop
      vertex 193.438 -91.5162 0
      vertex 189.906 -90.2025 3
      vertex 189.906 -90.2025 0
    endloop
  endfacet
  facet normal -0.34861 -0.937268 0
    outer loop
      vertex 193.438 -91.5162 0
      vertex 193.438 -91.5162 3
      vertex 189.906 -90.2025 3
    endloop
  endfacet
  facet normal -0.425774 -0.90483 0
    outer loop
      vertex 196.848 -93.1208 0
      vertex 193.438 -91.5162 3
      vertex 193.438 -91.5162 0
    endloop
  endfacet
  facet normal -0.425774 -0.90483 0
    outer loop
      vertex 196.848 -93.1208 0
      vertex 196.848 -93.1208 3
      vertex 193.438 -91.5162 3
    endloop
  endfacet
  facet normal -0.499986 -0.866034 0
    outer loop
      vertex 200.112 -95.0052 0
      vertex 196.848 -93.1208 3
      vertex 196.848 -93.1208 0
    endloop
  endfacet
  facet normal -0.499986 -0.866034 0
    outer loop
      vertex 200.112 -95.0052 0
      vertex 200.112 -95.0052 3
      vertex 196.848 -93.1208 3
    endloop
  endfacet
  facet normal -0.570699 -0.821159 0
    outer loop
      vertex 203.207 -97.1562 0
      vertex 200.112 -95.0052 3
      vertex 200.112 -95.0052 0
    endloop
  endfacet
  facet normal -0.570699 -0.821159 0
    outer loop
      vertex 203.207 -97.1562 0
      vertex 203.207 -97.1562 3
      vertex 200.112 -95.0052 3
    endloop
  endfacet
  facet normal -0.637409 -0.770526 0
    outer loop
      vertex 206.111 -99.5585 0
      vertex 203.207 -97.1562 3
      vertex 203.207 -97.1562 0
    endloop
  endfacet
  facet normal -0.637409 -0.770526 0
    outer loop
      vertex 206.111 -99.5585 0
      vertex 206.111 -99.5585 3
      vertex 203.207 -97.1562 3
    endloop
  endfacet
  facet normal -0.699571 -0.714563 0
    outer loop
      vertex 208.804 -102.195 0
      vertex 206.111 -99.5585 3
      vertex 206.111 -99.5585 0
    endloop
  endfacet
  facet normal -0.699571 -0.714563 0
    outer loop
      vertex 208.804 -102.195 0
      vertex 208.804 -102.195 3
      vertex 206.111 -99.5585 3
    endloop
  endfacet
  facet normal -0.75708 -0.653323 0
    outer loop
      vertex 211.266 -105.048 0
      vertex 208.804 -102.195 3
      vertex 208.804 -102.195 0
    endloop
  endfacet
  facet normal -0.75708 -0.653323 0
    outer loop
      vertex 211.266 -105.048 0
      vertex 211.266 -105.048 3
      vertex 208.804 -102.195 3
    endloop
  endfacet
  facet normal -0.809046 -0.587746 0
    outer loop
      vertex 213.481 -108.097 0
      vertex 211.266 -105.048 3
      vertex 211.266 -105.048 0
    endloop
  endfacet
  facet normal -0.809046 -0.587746 0
    outer loop
      vertex 213.481 -108.097 0
      vertex 213.481 -108.097 3
      vertex 211.266 -105.048 3
    endloop
  endfacet
  facet normal -0.855308 -0.518119 0
    outer loop
      vertex 215.434 -111.321 0
      vertex 213.481 -108.097 3
      vertex 213.481 -108.097 0
    endloop
  endfacet
  facet normal -0.855308 -0.518119 0
    outer loop
      vertex 215.434 -111.321 0
      vertex 215.434 -111.321 3
      vertex 213.481 -108.097 3
    endloop
  endfacet
  facet normal -0.895697 -0.444665 0
    outer loop
      vertex 217.11 -114.697 0
      vertex 215.434 -111.321 3
      vertex 215.434 -111.321 0
    endloop
  endfacet
  facet normal -0.895697 -0.444665 0
    outer loop
      vertex 217.11 -114.697 0
      vertex 217.11 -114.697 3
      vertex 215.434 -111.321 3
    endloop
  endfacet
  facet normal -0.929807 -0.368048 0
    outer loop
      vertex 218.497 -118.201 0
      vertex 217.11 -114.697 3
      vertex 217.11 -114.697 0
    endloop
  endfacet
  facet normal -0.929807 -0.368048 0
    outer loop
      vertex 218.497 -118.201 0
      vertex 218.497 -118.201 3
      vertex 217.11 -114.697 3
    endloop
  endfacet
  facet normal -0.957328 -0.289005 0
    outer loop
      vertex 218.529 -118.307 0
      vertex 218.497 -118.201 3
      vertex 218.497 -118.201 0
    endloop
  endfacet
  facet normal -0.957328 -0.289005 0
    outer loop
      vertex 218.529 -118.307 0
      vertex 218.529 -118.307 3
      vertex 218.497 -118.201 3
    endloop
  endfacet
  facet normal -0.418895 -0.908035 0
    outer loop
      vertex 259.7 -137.3 0
      vertex 218.529 -118.307 3
      vertex 218.529 -118.307 0
    endloop
  endfacet
  facet normal -0.418895 -0.908035 0
    outer loop
      vertex 259.7 -137.3 0
      vertex 259.7 -137.3 3
      vertex 218.529 -118.307 3
    endloop
  endfacet
  facet normal 0.900688 -0.434466 0
    outer loop
      vertex 266.144 -123.941 0
      vertex 259.7 -137.3 3
      vertex 259.7 -137.3 0
    endloop
  endfacet
  facet normal 0.900688 -0.434466 0
    outer loop
      vertex 266.144 -123.941 0
      vertex 266.144 -123.941 3
      vertex 259.7 -137.3 3
    endloop
  endfacet
  facet normal 0.555643 0.831421 -0
    outer loop
      vertex 177.737 -13.2627 0
      vertex 177.737 -13.2627 3
      vertex 178.775 -13.9564 0
    endloop
  endfacet
  facet normal 0.555643 0.831421 0
    outer loop
      vertex 178.775 -13.9564 3
      vertex 178.775 -13.9564 0
      vertex 177.737 -13.2627 3
    endloop
  endfacet
  facet normal 0.831705 0.555218 -0
    outer loop
      vertex 177.044 -12.2246 0
      vertex 177.044 -12.2246 3
      vertex 177.737 -13.2627 0
    endloop
  endfacet
  facet normal 0.831705 0.555218 0
    outer loop
      vertex 177.737 -13.2627 3
      vertex 177.737 -13.2627 0
      vertex 177.044 -12.2246 3
    endloop
  endfacet
  facet normal 0.980722 0.195408 -0
    outer loop
      vertex 176.8 -11 0
      vertex 176.8 -11 3
      vertex 177.044 -12.2246 0
    endloop
  endfacet
  facet normal 0.980722 0.195408 0
    outer loop
      vertex 177.044 -12.2246 3
      vertex 177.044 -12.2246 0
      vertex 176.8 -11 3
    endloop
  endfacet
  facet normal 0.980722 -0.195409 0
    outer loop
      vertex 177.044 -9.77541 0
      vertex 177.044 -9.77541 3
      vertex 176.8 -11 0
    endloop
  endfacet
  facet normal 0.980722 -0.195409 0
    outer loop
      vertex 176.8 -11 3
      vertex 176.8 -11 0
      vertex 177.044 -9.77541 3
    endloop
  endfacet
  facet normal 0.831722 -0.555192 0
    outer loop
      vertex 177.737 -8.73724 0
      vertex 177.737 -8.73724 3
      vertex 177.044 -9.77541 0
    endloop
  endfacet
  facet normal 0.831722 -0.555192 0
    outer loop
      vertex 177.044 -9.77541 3
      vertex 177.044 -9.77541 0
      vertex 177.737 -8.73724 3
    endloop
  endfacet
  facet normal 0.55562 -0.831436 0
    outer loop
      vertex 178.775 -8.04358 0
      vertex 178.775 -8.04358 3
      vertex 177.737 -8.73724 0
    endloop
  endfacet
  facet normal 0.55562 -0.831436 0
    outer loop
      vertex 177.737 -8.73724 3
      vertex 177.737 -8.73724 0
      vertex 178.775 -8.04358 3
    endloop
  endfacet
  facet normal 0.195031 -0.980797 0
    outer loop
      vertex 180 -7.79999 0
      vertex 180 -7.79999 3
      vertex 178.775 -8.04358 0
    endloop
  endfacet
  facet normal 0.195031 -0.980797 0
    outer loop
      vertex 178.775 -8.04358 3
      vertex 178.775 -8.04358 0
      vertex 180 -7.79999 3
    endloop
  endfacet
  facet normal -0.195031 -0.980797 0
    outer loop
      vertex 181.225 -8.04358 0
      vertex 181.225 -8.04358 3
      vertex 180 -7.79999 0
    endloop
  endfacet
  facet normal -0.195031 -0.980797 -0
    outer loop
      vertex 180 -7.79999 3
      vertex 180 -7.79999 0
      vertex 181.225 -8.04358 3
    endloop
  endfacet
  facet normal -0.55562 -0.831436 0
    outer loop
      vertex 182.263 -8.73724 0
      vertex 182.263 -8.73724 3
      vertex 181.225 -8.04358 0
    endloop
  endfacet
  facet normal -0.55562 -0.831436 -0
    outer loop
      vertex 181.225 -8.04358 3
      vertex 181.225 -8.04358 0
      vertex 182.263 -8.73724 3
    endloop
  endfacet
  facet normal -0.831722 -0.555192 0
    outer loop
      vertex 182.956 -9.77541 0
      vertex 182.956 -9.77541 3
      vertex 182.263 -8.73724 0
    endloop
  endfacet
  facet normal -0.831722 -0.555192 -0
    outer loop
      vertex 182.263 -8.73724 3
      vertex 182.263 -8.73724 0
      vertex 182.956 -9.77541 3
    endloop
  endfacet
  facet normal -0.980722 -0.195409 0
    outer loop
      vertex 183.2 -11 0
      vertex 183.2 -11 3
      vertex 182.956 -9.77541 0
    endloop
  endfacet
  facet normal -0.980722 -0.195409 -0
    outer loop
      vertex 182.956 -9.77541 3
      vertex 182.956 -9.77541 0
      vertex 183.2 -11 3
    endloop
  endfacet
  facet normal -0.980722 0.195408 0
    outer loop
      vertex 182.956 -12.2246 0
      vertex 182.956 -12.2246 3
      vertex 183.2 -11 0
    endloop
  endfacet
  facet normal -0.980722 0.195408 0
    outer loop
      vertex 183.2 -11 3
      vertex 183.2 -11 0
      vertex 182.956 -12.2246 3
    endloop
  endfacet
  facet normal -0.831705 0.555218 0
    outer loop
      vertex 182.263 -13.2627 0
      vertex 182.263 -13.2627 3
      vertex 182.956 -12.2246 0
    endloop
  endfacet
  facet normal -0.831705 0.555218 0
    outer loop
      vertex 182.956 -12.2246 3
      vertex 182.956 -12.2246 0
      vertex 182.263 -13.2627 3
    endloop
  endfacet
  facet normal -0.555643 0.831421 0
    outer loop
      vertex 181.225 -13.9564 0
      vertex 181.225 -13.9564 3
      vertex 182.263 -13.2627 0
    endloop
  endfacet
  facet normal -0.555643 0.831421 0
    outer loop
      vertex 182.263 -13.2627 3
      vertex 182.263 -13.2627 0
      vertex 181.225 -13.9564 3
    endloop
  endfacet
  facet normal -0.195038 0.980796 0
    outer loop
      vertex 180 -14.2 0
      vertex 180 -14.2 3
      vertex 181.225 -13.9564 0
    endloop
  endfacet
  facet normal -0.195038 0.980796 0
    outer loop
      vertex 181.225 -13.9564 3
      vertex 181.225 -13.9564 0
      vertex 180 -14.2 3
    endloop
  endfacet
  facet normal 0.195038 0.980796 -0
    outer loop
      vertex 178.775 -13.9564 0
      vertex 178.775 -13.9564 3
      vertex 180 -14.2 0
    endloop
  endfacet
  facet normal 0.195038 0.980796 0
    outer loop
      vertex 180 -14.2 3
      vertex 180 -14.2 0
      vertex 178.775 -13.9564 3
    endloop
  endfacet
  facet normal 0.555643 0.831421 -0
    outer loop
      vertex 244.237 -13.7627 0
      vertex 244.237 -13.7627 3
      vertex 245.275 -14.4564 0
    endloop
  endfacet
  facet normal 0.555643 0.831421 0
    outer loop
      vertex 245.275 -14.4564 3
      vertex 245.275 -14.4564 0
      vertex 244.237 -13.7627 3
    endloop
  endfacet
  facet normal 0.831705 0.555218 -0
    outer loop
      vertex 243.544 -12.7246 0
      vertex 243.544 -12.7246 3
      vertex 244.237 -13.7627 0
    endloop
  endfacet
  facet normal 0.831705 0.555218 0
    outer loop
      vertex 244.237 -13.7627 3
      vertex 244.237 -13.7627 0
      vertex 243.544 -12.7246 3
    endloop
  endfacet
  facet normal 0.980722 0.195408 -0
    outer loop
      vertex 243.3 -11.5 0
      vertex 243.3 -11.5 3
      vertex 243.544 -12.7246 0
    endloop
  endfacet
  facet normal 0.980722 0.195408 0
    outer loop
      vertex 243.544 -12.7246 3
      vertex 243.544 -12.7246 0
      vertex 243.3 -11.5 3
    endloop
  endfacet
  facet normal 0.980722 -0.195408 0
    outer loop
      vertex 243.544 -10.2754 0
      vertex 243.544 -10.2754 3
      vertex 243.3 -11.5 0
    endloop
  endfacet
  facet normal 0.980722 -0.195408 0
    outer loop
      vertex 243.3 -11.5 3
      vertex 243.3 -11.5 0
      vertex 243.544 -10.2754 3
    endloop
  endfacet
  facet normal 0.83172 -0.555196 0
    outer loop
      vertex 244.237 -9.23724 0
      vertex 244.237 -9.23724 3
      vertex 243.544 -10.2754 0
    endloop
  endfacet
  facet normal 0.83172 -0.555196 0
    outer loop
      vertex 243.544 -10.2754 3
      vertex 243.544 -10.2754 0
      vertex 244.237 -9.23724 3
    endloop
  endfacet
  facet normal 0.55562 -0.831436 0
    outer loop
      vertex 245.275 -8.54358 0
      vertex 245.275 -8.54358 3
      vertex 244.237 -9.23724 0
    endloop
  endfacet
  facet normal 0.55562 -0.831436 0
    outer loop
      vertex 244.237 -9.23724 3
      vertex 244.237 -9.23724 0
      vertex 245.275 -8.54358 3
    endloop
  endfacet
  facet normal 0.195031 -0.980797 0
    outer loop
      vertex 246.5 -8.29999 0
      vertex 246.5 -8.29999 3
      vertex 245.275 -8.54358 0
    endloop
  endfacet
  facet normal 0.195031 -0.980797 0
    outer loop
      vertex 245.275 -8.54358 3
      vertex 245.275 -8.54358 0
      vertex 246.5 -8.29999 3
    endloop
  endfacet
  facet normal -0.195031 -0.980797 0
    outer loop
      vertex 247.725 -8.54358 0
      vertex 247.725 -8.54358 3
      vertex 246.5 -8.29999 0
    endloop
  endfacet
  facet normal -0.195031 -0.980797 -0
    outer loop
      vertex 246.5 -8.29999 3
      vertex 246.5 -8.29999 0
      vertex 247.725 -8.54358 3
    endloop
  endfacet
  facet normal -0.55562 -0.831436 0
    outer loop
      vertex 248.763 -9.23724 0
      vertex 248.763 -9.23724 3
      vertex 247.725 -8.54358 0
    endloop
  endfacet
  facet normal -0.55562 -0.831436 -0
    outer loop
      vertex 247.725 -8.54358 3
      vertex 247.725 -8.54358 0
      vertex 248.763 -9.23724 3
    endloop
  endfacet
  facet normal -0.83172 -0.555196 0
    outer loop
      vertex 249.456 -10.2754 0
      vertex 249.456 -10.2754 3
      vertex 248.763 -9.23724 0
    endloop
  endfacet
  facet normal -0.83172 -0.555196 -0
    outer loop
      vertex 248.763 -9.23724 3
      vertex 248.763 -9.23724 0
      vertex 249.456 -10.2754 3
    endloop
  endfacet
  facet normal -0.980722 -0.195408 0
    outer loop
      vertex 249.7 -11.5 0
      vertex 249.7 -11.5 3
      vertex 249.456 -10.2754 0
    endloop
  endfacet
  facet normal -0.980722 -0.195408 -0
    outer loop
      vertex 249.456 -10.2754 3
      vertex 249.456 -10.2754 0
      vertex 249.7 -11.5 3
    endloop
  endfacet
  facet normal -0.980722 0.195408 0
    outer loop
      vertex 249.456 -12.7246 0
      vertex 249.456 -12.7246 3
      vertex 249.7 -11.5 0
    endloop
  endfacet
  facet normal -0.980722 0.195408 0
    outer loop
      vertex 249.7 -11.5 3
      vertex 249.7 -11.5 0
      vertex 249.456 -12.7246 3
    endloop
  endfacet
  facet normal -0.831705 0.555218 0
    outer loop
      vertex 248.763 -13.7627 0
      vertex 248.763 -13.7627 3
      vertex 249.456 -12.7246 0
    endloop
  endfacet
  facet normal -0.831705 0.555218 0
    outer loop
      vertex 249.456 -12.7246 3
      vertex 249.456 -12.7246 0
      vertex 248.763 -13.7627 3
    endloop
  endfacet
  facet normal -0.555643 0.831421 0
    outer loop
      vertex 247.725 -14.4564 0
      vertex 247.725 -14.4564 3
      vertex 248.763 -13.7627 0
    endloop
  endfacet
  facet normal -0.555643 0.831421 0
    outer loop
      vertex 248.763 -13.7627 3
      vertex 248.763 -13.7627 0
      vertex 247.725 -14.4564 3
    endloop
  endfacet
  facet normal -0.195038 0.980796 0
    outer loop
      vertex 246.5 -14.7 0
      vertex 246.5 -14.7 3
      vertex 247.725 -14.4564 0
    endloop
  endfacet
  facet normal -0.195038 0.980796 0
    outer loop
      vertex 247.725 -14.4564 3
      vertex 247.725 -14.4564 0
      vertex 246.5 -14.7 3
    endloop
  endfacet
  facet normal 0.195038 0.980796 -0
    outer loop
      vertex 245.275 -14.4564 0
      vertex 245.275 -14.4564 3
      vertex 246.5 -14.7 0
    endloop
  endfacet
  facet normal 0.195038 0.980796 0
    outer loop
      vertex 246.5 -14.7 3
      vertex 246.5 -14.7 0
      vertex 245.275 -14.4564 3
    endloop
  endfacet
  facet normal 0.555643 0.831421 -0
    outer loop
      vertex 152.737 -60.2627 0
      vertex 152.737 -60.2627 3
      vertex 153.775 -60.9564 0
    endloop
  endfacet
  facet normal 0.555643 0.831421 0
    outer loop
      vertex 153.775 -60.9564 3
      vertex 153.775 -60.9564 0
      vertex 152.737 -60.2627 3
    endloop
  endfacet
  facet normal 0.831705 0.555218 -0
    outer loop
      vertex 152.044 -59.2246 0
      vertex 152.044 -59.2246 3
      vertex 152.737 -60.2627 0
    endloop
  endfacet
  facet normal 0.831705 0.555218 0
    outer loop
      vertex 152.737 -60.2627 3
      vertex 152.737 -60.2627 0
      vertex 152.044 -59.2246 3
    endloop
  endfacet
  facet normal 0.980722 0.195408 -0
    outer loop
      vertex 151.8 -58 0
      vertex 151.8 -58 3
      vertex 152.044 -59.2246 0
    endloop
  endfacet
  facet normal 0.980722 0.195408 0
    outer loop
      vertex 152.044 -59.2246 3
      vertex 152.044 -59.2246 0
      vertex 151.8 -58 3
    endloop
  endfacet
  facet normal 0.980722 -0.195408 0
    outer loop
      vertex 152.044 -56.7754 0
      vertex 152.044 -56.7754 3
      vertex 151.8 -58 0
    endloop
  endfacet
  facet normal 0.980722 -0.195408 0
    outer loop
      vertex 151.8 -58 3
      vertex 151.8 -58 0
      vertex 152.044 -56.7754 3
    endloop
  endfacet
  facet normal 0.83173 -0.555181 0
    outer loop
      vertex 152.737 -55.7372 0
      vertex 152.737 -55.7372 3
      vertex 152.044 -56.7754 0
    endloop
  endfacet
  facet normal 0.83173 -0.555181 0
    outer loop
      vertex 152.044 -56.7754 3
      vertex 152.044 -56.7754 0
      vertex 152.737 -55.7372 3
    endloop
  endfacet
  facet normal 0.555587 -0.831458 0
    outer loop
      vertex 153.775 -55.0436 0
      vertex 153.775 -55.0436 3
      vertex 152.737 -55.7372 0
    endloop
  endfacet
  facet normal 0.555587 -0.831458 0
    outer loop
      vertex 152.737 -55.7372 3
      vertex 152.737 -55.7372 0
      vertex 153.775 -55.0436 3
    endloop
  endfacet
  facet normal 0.195038 -0.980796 0
    outer loop
      vertex 155 -54.8 0
      vertex 155 -54.8 3
      vertex 153.775 -55.0436 0
    endloop
  endfacet
  facet normal 0.195038 -0.980796 0
    outer loop
      vertex 153.775 -55.0436 3
      vertex 153.775 -55.0436 0
      vertex 155 -54.8 3
    endloop
  endfacet
  facet normal -0.195038 -0.980796 0
    outer loop
      vertex 156.225 -55.0436 0
      vertex 156.225 -55.0436 3
      vertex 155 -54.8 0
    endloop
  endfacet
  facet normal -0.195038 -0.980796 -0
    outer loop
      vertex 155 -54.8 3
      vertex 155 -54.8 0
      vertex 156.225 -55.0436 3
    endloop
  endfacet
  facet normal -0.555587 -0.831458 0
    outer loop
      vertex 157.263 -55.7372 0
      vertex 157.263 -55.7372 3
      vertex 156.225 -55.0436 0
    endloop
  endfacet
  facet normal -0.555587 -0.831458 -0
    outer loop
      vertex 156.225 -55.0436 3
      vertex 156.225 -55.0436 0
      vertex 157.263 -55.7372 3
    endloop
  endfacet
  facet normal -0.83173 -0.555181 0
    outer loop
      vertex 157.956 -56.7754 0
      vertex 157.956 -56.7754 3
      vertex 157.263 -55.7372 0
    endloop
  endfacet
  facet normal -0.83173 -0.555181 -0
    outer loop
      vertex 157.263 -55.7372 3
      vertex 157.263 -55.7372 0
      vertex 157.956 -56.7754 3
    endloop
  endfacet
  facet normal -0.980722 -0.195408 0
    outer loop
      vertex 158.2 -58 0
      vertex 158.2 -58 3
      vertex 157.956 -56.7754 0
    endloop
  endfacet
  facet normal -0.980722 -0.195408 -0
    outer loop
      vertex 157.956 -56.7754 3
      vertex 157.956 -56.7754 0
      vertex 158.2 -58 3
    endloop
  endfacet
  facet normal -0.980722 0.195408 0
    outer loop
      vertex 157.956 -59.2246 0
      vertex 157.956 -59.2246 3
      vertex 158.2 -58 0
    endloop
  endfacet
  facet normal -0.980722 0.195408 0
    outer loop
      vertex 158.2 -58 3
      vertex 158.2 -58 0
      vertex 157.956 -59.2246 3
    endloop
  endfacet
  facet normal -0.831705 0.555218 0
    outer loop
      vertex 157.263 -60.2627 0
      vertex 157.263 -60.2627 3
      vertex 157.956 -59.2246 0
    endloop
  endfacet
  facet normal -0.831705 0.555218 0
    outer loop
      vertex 157.956 -59.2246 3
      vertex 157.956 -59.2246 0
      vertex 157.263 -60.2627 3
    endloop
  endfacet
  facet normal -0.555643 0.831421 0
    outer loop
      vertex 156.225 -60.9564 0
      vertex 156.225 -60.9564 3
      vertex 157.263 -60.2627 0
    endloop
  endfacet
  facet normal -0.555643 0.831421 0
    outer loop
      vertex 157.263 -60.2627 3
      vertex 157.263 -60.2627 0
      vertex 156.225 -60.9564 3
    endloop
  endfacet
  facet normal -0.195038 0.980796 0
    outer loop
      vertex 155 -61.2 0
      vertex 155 -61.2 3
      vertex 156.225 -60.9564 0
    endloop
  endfacet
  facet normal -0.195038 0.980796 0
    outer loop
      vertex 156.225 -60.9564 3
      vertex 156.225 -60.9564 0
      vertex 155 -61.2 3
    endloop
  endfacet
  facet normal 0.195038 0.980796 -0
    outer loop
      vertex 153.775 -60.9564 0
      vertex 153.775 -60.9564 3
      vertex 155 -61.2 0
    endloop
  endfacet
  facet normal 0.195038 0.980796 0
    outer loop
      vertex 155 -61.2 3
      vertex 155 -61.2 0
      vertex 153.775 -60.9564 3
    endloop
  endfacet
  facet normal 0.555255 0.83168 -0
    outer loop
      vertex 266.737 -120.563 0
      vertex 266.737 -120.563 3
      vertex 267.775 -121.256 0
    endloop
  endfacet
  facet normal 0.555255 0.83168 0
    outer loop
      vertex 267.775 -121.256 3
      vertex 267.775 -121.256 0
      vertex 266.737 -120.563 3
    endloop
  endfacet
  facet normal 0.83168 0.555255 -0
    outer loop
      vertex 266.044 -119.525 0
      vertex 266.044 -119.525 3
      vertex 266.737 -120.563 0
    endloop
  endfacet
  facet normal 0.83168 0.555255 0
    outer loop
      vertex 266.737 -120.563 3
      vertex 266.737 -120.563 0
      vertex 266.044 -119.525 3
    endloop
  endfacet
  facet normal 0.980734 0.195346 -0
    outer loop
      vertex 265.8 -118.3 0
      vertex 265.8 -118.3 3
      vertex 266.044 -119.525 0
    endloop
  endfacet
  facet normal 0.980734 0.195346 0
    outer loop
      vertex 266.044 -119.525 3
      vertex 266.044 -119.525 0
      vertex 265.8 -118.3 3
    endloop
  endfacet
  facet normal 0.980734 -0.195346 0
    outer loop
      vertex 266.044 -117.075 0
      vertex 266.044 -117.075 3
      vertex 265.8 -118.3 0
    endloop
  endfacet
  facet normal 0.980734 -0.195346 0
    outer loop
      vertex 265.8 -118.3 3
      vertex 265.8 -118.3 0
      vertex 266.044 -117.075 3
    endloop
  endfacet
  facet normal 0.83168 -0.555255 0
    outer loop
      vertex 266.737 -116.037 0
      vertex 266.737 -116.037 3
      vertex 266.044 -117.075 0
    endloop
  endfacet
  facet normal 0.83168 -0.555255 0
    outer loop
      vertex 266.044 -117.075 3
      vertex 266.044 -117.075 0
      vertex 266.737 -116.037 3
    endloop
  endfacet
  facet normal 0.555255 -0.83168 0
    outer loop
      vertex 267.775 -115.344 0
      vertex 267.775 -115.344 3
      vertex 266.737 -116.037 0
    endloop
  endfacet
  facet normal 0.555255 -0.83168 0
    outer loop
      vertex 266.737 -116.037 3
      vertex 266.737 -116.037 0
      vertex 267.775 -115.344 3
    endloop
  endfacet
  facet normal 0.195346 -0.980734 0
    outer loop
      vertex 269 -115.1 0
      vertex 269 -115.1 3
      vertex 267.775 -115.344 0
    endloop
  endfacet
  facet normal 0.195346 -0.980734 0
    outer loop
      vertex 267.775 -115.344 3
      vertex 267.775 -115.344 0
      vertex 269 -115.1 3
    endloop
  endfacet
  facet normal -0.195346 -0.980734 0
    outer loop
      vertex 270.225 -115.344 0
      vertex 270.225 -115.344 3
      vertex 269 -115.1 0
    endloop
  endfacet
  facet normal -0.195346 -0.980734 -0
    outer loop
      vertex 269 -115.1 3
      vertex 269 -115.1 0
      vertex 270.225 -115.344 3
    endloop
  endfacet
  facet normal -0.555255 -0.83168 0
    outer loop
      vertex 271.263 -116.037 0
      vertex 271.263 -116.037 3
      vertex 270.225 -115.344 0
    endloop
  endfacet
  facet normal -0.555255 -0.83168 -0
    outer loop
      vertex 270.225 -115.344 3
      vertex 270.225 -115.344 0
      vertex 271.263 -116.037 3
    endloop
  endfacet
  facet normal -0.83168 -0.555255 0
    outer loop
      vertex 271.956 -117.075 0
      vertex 271.956 -117.075 3
      vertex 271.263 -116.037 0
    endloop
  endfacet
  facet normal -0.83168 -0.555255 -0
    outer loop
      vertex 271.263 -116.037 3
      vertex 271.263 -116.037 0
      vertex 271.956 -117.075 3
    endloop
  endfacet
  facet normal -0.980734 -0.195346 0
    outer loop
      vertex 272.2 -118.3 0
      vertex 272.2 -118.3 3
      vertex 271.956 -117.075 0
    endloop
  endfacet
  facet normal -0.980734 -0.195346 -0
    outer loop
      vertex 271.956 -117.075 3
      vertex 271.956 -117.075 0
      vertex 272.2 -118.3 3
    endloop
  endfacet
  facet normal -0.980734 0.195346 0
    outer loop
      vertex 271.956 -119.525 0
      vertex 271.956 -119.525 3
      vertex 272.2 -118.3 0
    endloop
  endfacet
  facet normal -0.980734 0.195346 0
    outer loop
      vertex 272.2 -118.3 3
      vertex 272.2 -118.3 0
      vertex 271.956 -119.525 3
    endloop
  endfacet
  facet normal -0.83168 0.555255 0
    outer loop
      vertex 271.263 -120.563 0
      vertex 271.263 -120.563 3
      vertex 271.956 -119.525 0
    endloop
  endfacet
  facet normal -0.83168 0.555255 0
    outer loop
      vertex 271.956 -119.525 3
      vertex 271.956 -119.525 0
      vertex 271.263 -120.563 3
    endloop
  endfacet
  facet normal -0.555255 0.83168 0
    outer loop
      vertex 270.225 -121.256 0
      vertex 270.225 -121.256 3
      vertex 271.263 -120.563 0
    endloop
  endfacet
  facet normal -0.555255 0.83168 0
    outer loop
      vertex 271.263 -120.563 3
      vertex 271.263 -120.563 0
      vertex 270.225 -121.256 3
    endloop
  endfacet
  facet normal -0.195346 0.980734 0
    outer loop
      vertex 269 -121.5 0
      vertex 269 -121.5 3
      vertex 270.225 -121.256 0
    endloop
  endfacet
  facet normal -0.195346 0.980734 0
    outer loop
      vertex 270.225 -121.256 3
      vertex 270.225 -121.256 0
      vertex 269 -121.5 3
    endloop
  endfacet
  facet normal 0.195346 0.980734 -0
    outer loop
      vertex 267.775 -121.256 0
      vertex 267.775 -121.256 3
      vertex 269 -121.5 0
    endloop
  endfacet
  facet normal 0.195346 0.980734 0
    outer loop
      vertex 269 -121.5 3
      vertex 269 -121.5 0
      vertex 267.775 -121.256 3
    endloop
  endfacet
endsolid OpenSCAD_Model
